<?xml version="1.0" encoding="UTF-8"?>
<!DOCTYPE svg PUBLIC "-//W3C//DTD SVG 1.1//EN" "http://www.w3.org/Graphics/SVG/1.1/DTD/svg11.dtd">
<svg xmlns="http://www.w3.org/2000/svg" version="1.1" width="500px" height="500px" style="shape-rendering:geometricPrecision; text-rendering:geometricPrecision; image-rendering:optimizeQuality; fill-rule:evenodd; clip-rule:evenodd" xmlns:xlink="http://www.w3.org/1999/xlink">
<g><path style="opacity:0.655" fill="#8a7723" d="M 266.5,146.5 C 255.852,145.723 245.185,145.39 234.5,145.5C 245.234,142.838 255.9,143.171 266.5,146.5 Z"/></g>
<g><path style="opacity:1" fill="#070403" d="M 234.5,145.5 C 245.185,145.39 255.852,145.723 266.5,146.5C 266.833,146.5 267.167,146.5 267.5,146.5C 270.335,148.785 273.668,150.118 277.5,150.5C 279.426,152.293 281.759,153.293 284.5,153.5C 286.629,155.95 289.296,157.617 292.5,158.5C 293.911,160.914 295.911,162.581 298.5,163.5C 301.5,167.167 304.833,170.5 308.5,173.5C 308.738,175.404 309.738,176.738 311.5,177.5C 311.738,179.404 312.738,180.738 314.5,181.5C 316.341,183.849 317.674,186.515 318.5,189.5C 320.051,195.398 322.051,201.064 324.5,206.5C 324.5,206.833 324.5,207.167 324.5,207.5C 325.37,216.154 325.536,224.82 325,233.5C 323.202,238.692 322.035,244.025 321.5,249.5C 319.375,252.088 318.042,255.088 317.5,258.5C 316.094,258.973 315.427,259.973 315.5,261.5C 314.326,262.514 313.66,263.847 313.5,265.5C 311.738,266.262 310.738,267.596 310.5,269.5C 308.121,268.433 307.121,269.433 307.5,272.5C 306.5,272.5 305.5,272.5 304.5,272.5C 304.5,273.5 304.5,274.5 304.5,275.5C 302.5,277.833 300.5,280.167 298.5,282.5C 298.167,283.5 297.5,284.167 296.5,284.5C 293.802,284.845 291.802,286.178 290.5,288.5C 290.5,289.167 290.167,289.5 289.5,289.5C 286.911,289.461 284.911,290.461 283.5,292.5C 281.033,292.755 279.033,293.755 277.5,295.5C 272.835,296.057 268.502,297.39 264.5,299.5C 255.516,300.432 246.516,300.599 237.5,300C 230.75,298.804 224.084,297.304 217.5,295.5C 214.515,294.674 211.849,293.341 209.5,291.5C 212.48,291.62 215.313,292.287 218,293.5C 218.507,292.004 218.007,290.837 216.5,290C 217.448,289.517 218.448,289.351 219.5,289.5C 220.407,284.286 220.407,279.12 219.5,274C 219.808,272.541 220.475,271.374 221.5,270.5C 221.5,274.833 221.5,279.167 221.5,283.5C 221.5,284.5 221.5,285.5 221.5,286.5C 223.223,287.807 225.057,287.807 227,286.5C 228.354,282.637 228.854,278.637 228.5,274.5C 228.5,274.167 228.5,273.833 228.5,273.5C 229.181,271.842 230.015,270.175 231,268.5C 231.232,269.737 231.732,270.737 232.5,271.5C 232.28,276.1 232.946,280.433 234.5,284.5C 235.338,284.842 235.672,285.508 235.5,286.5C 236.919,287.451 238.585,287.784 240.5,287.5C 240.049,276.423 239.215,265.423 238,254.5C 238.278,255.416 238.778,256.082 239.5,256.5C 240.537,257.93 241.204,259.597 241.5,261.5C 241.414,262.496 241.748,263.329 242.5,264C 244.134,264.494 245.801,264.66 247.5,264.5C 246.829,259.155 245.163,254.155 242.5,249.5C 243.847,250.171 245.014,250.171 246,249.5C 246.359,252.544 247.026,252.878 248,250.5C 248.667,251.833 249.667,252.833 251,253.5C 251.697,251.077 253.197,249.411 255.5,248.5C 253.431,253.707 251.764,259.04 250.5,264.5C 255.118,265.051 257.951,263.051 259,258.5C 258.63,268.147 258.13,277.814 257.5,287.5C 260.044,287.896 262.211,287.229 264,285.5C 265.367,281.3 265.867,276.967 265.5,272.5C 265.5,272.167 265.5,271.833 265.5,271.5C 266.268,270.737 266.768,269.737 267,268.5C 267.846,272.388 269.013,276.055 270.5,279.5C 270.5,279.833 270.5,280.167 270.5,280.5C 269.167,286.5 271.5,288.833 277.5,287.5C 276.942,277.809 276.442,268.142 276,258.5C 276.383,259.056 276.883,259.389 277.5,259.5C 277.5,261.167 277.5,262.833 277.5,264.5C 279.833,264.5 282.167,264.5 284.5,264.5C 284.263,261.353 283.43,258.353 282,255.5C 281.623,254.058 280.79,253.058 279.5,252.5C 279.598,250.447 278.931,248.78 277.5,247.5C 277.167,243.833 275.167,241.833 271.5,241.5C 267.935,240.213 264.268,240.213 260.5,241.5C 260.196,240.85 259.863,240.183 259.5,239.5C 260.089,236.36 260.756,233.36 261.5,230.5C 261.216,232.415 261.549,234.081 262.5,235.5C 262.956,238.286 264.623,239.619 267.5,239.5C 269.912,239.594 271.745,238.594 273,236.5C 275.165,228.679 272.332,225.179 264.5,226C 263.944,226.383 263.611,226.883 263.5,227.5C 263.167,227.5 262.833,227.5 262.5,227.5C 261.442,224.758 259.609,224.091 257,225.5C 256.749,223.567 256.249,221.734 255.5,220C 256.067,213.684 256.901,208.184 258,203.5C 255.666,201.98 253.166,200.98 250.5,200.5C 249.5,199.167 248.5,199.167 247.5,200.5C 245.177,193.182 242.844,185.849 240.5,178.5C 239.167,178.5 237.833,178.5 236.5,178.5C 232.366,177.515 228.032,177.182 223.5,177.5C 224.15,175.565 224.483,173.565 224.5,171.5C 225.167,171.833 225.833,172.167 226.5,172.5C 226.414,173.496 226.748,174.329 227.5,175C 229.712,175.789 231.712,175.622 233.5,174.5C 234.496,174.586 235.329,174.252 236,173.5C 236.805,170.304 236.638,167.304 235.5,164.5C 234.5,164.167 233.833,163.5 233.5,162.5C 232.432,161.566 231.099,161.232 229.5,161.5C 231.698,160.835 234.031,160.168 236.5,159.5C 230.433,157.245 224.266,154.912 218,152.5C 214.259,154.414 210.426,156.081 206.5,157.5C 208.5,155.833 210.5,154.167 212.5,152.5C 215.943,151.941 218.943,150.607 221.5,148.5C 224.152,148.59 226.485,147.924 228.5,146.5C 230.265,145.539 232.265,145.205 234.5,145.5 Z M 263.5,173.5 C 263.672,172.508 263.338,171.842 262.5,171.5C 262.401,168.763 262.735,166.096 263.5,163.5C 268.384,161.3 271.384,162.8 272.5,168C 271.85,173.831 268.85,175.664 263.5,173.5 Z M 268.5,177.5 C 270.042,178.301 271.708,178.634 273.5,178.5C 275.694,180.9 277.361,183.566 278.5,186.5C 279.77,190.638 281.437,194.638 283.5,198.5C 281.994,199.747 280.494,199.747 279,198.5C 277.607,194.714 275.941,191.048 274,187.5C 273.13,188.108 272.63,188.941 272.5,190C 274.196,200.793 275.529,211.627 276.5,222.5C 274.708,222.634 273.042,222.301 271.5,221.5C 271.675,219.379 271.341,217.379 270.5,215.5C 270.355,210.622 269.355,205.955 267.5,201.5C 265.914,203.173 265.247,205.173 265.5,207.5C 265.5,207.833 265.5,208.167 265.5,208.5C 264.594,212.678 263.76,217.012 263,221.5C 261.644,222.38 260.144,222.714 258.5,222.5C 259.254,217.537 259.587,212.537 259.5,207.5C 259.5,206.167 259.5,204.833 259.5,203.5C 260.632,199.122 261.632,194.622 262.5,190C 261.874,189.25 261.374,188.416 261,187.5C 259.209,191.536 257.042,195.369 254.5,199C 253.365,199.749 252.365,199.583 251.5,198.5C 252.127,197.583 252.461,196.583 252.5,195.5C 253.404,194.791 253.737,193.791 253.5,192.5C 255.346,190.97 256.346,188.97 256.5,186.5C 258.065,184.491 259.065,182.157 259.5,179.5C 262.655,179.01 265.655,178.344 268.5,177.5 Z"/></g>
<g><path style="opacity:0.584" fill="#847926" d="M 228.5,146.5 C 226.485,147.924 224.152,148.59 221.5,148.5C 223.515,147.076 225.848,146.41 228.5,146.5 Z"/></g>
<g><path style="opacity:0.604" fill="#7b7128" d="M 267.5,146.5 C 271.137,147.263 274.47,148.597 277.5,150.5C 273.668,150.118 270.335,148.785 267.5,146.5 Z"/></g>
<g><path style="opacity:0.278" fill="#95862a" d="M 221.5,148.5 C 218.943,150.607 215.943,151.941 212.5,152.5C 215.088,150.408 218.088,149.075 221.5,148.5 Z"/></g>
<g><path style="opacity:0.192" fill="#a08e33" d="M 277.5,150.5 C 280.241,150.707 282.574,151.707 284.5,153.5C 281.759,153.293 279.426,152.293 277.5,150.5 Z"/></g>
<g><path style="opacity:0.482" fill="#907c28" d="M 212.5,152.5 C 210.5,154.167 208.5,155.833 206.5,157.5C 203.726,158.723 201.059,160.223 198.5,162C 193.965,166.703 189.298,171.203 184.5,175.5C 191.464,164.863 200.797,157.196 212.5,152.5 Z"/></g>
<g><path style="opacity:1" fill="#040302" d="M 229.5,161.5 C 224.976,163.197 223.309,166.531 224.5,171.5C 224.483,173.565 224.15,175.565 223.5,177.5C 219.372,184.762 216.039,192.428 213.5,200.5C 219.284,201.716 221.951,199.382 221.5,193.5C 222.895,191.946 223.561,192.279 223.5,194.5C 221.894,204.103 220.894,213.769 220.5,223.5C 222.792,223.756 224.959,223.423 227,222.5C 228.354,218.637 228.854,214.637 228.5,210.5C 228.5,210.167 228.5,209.833 228.5,209.5C 229.181,207.842 230.015,206.175 231,204.5C 231.21,206.058 231.71,207.391 232.5,208.5C 232.438,213.076 233.105,217.409 234.5,221.5C 235.918,223.308 237.918,223.975 240.5,223.5C 240.326,213.448 239.826,203.448 239,193.5C 239.278,194.416 239.778,195.082 240.5,195.5C 240.815,199.8 243.149,201.467 247.5,200.5C 248.5,199.167 249.5,199.167 250.5,200.5C 253.166,200.98 255.666,201.98 258,203.5C 256.901,208.184 256.067,213.684 255.5,220C 256.249,221.734 256.749,223.567 257,225.5C 259.609,224.091 261.442,224.758 262.5,227.5C 261.596,228.209 261.263,229.209 261.5,230.5C 260.756,233.36 260.089,236.36 259.5,239.5C 259.863,240.183 260.196,240.85 260.5,241.5C 258.461,242.911 257.461,244.911 257.5,247.5C 256.833,247.833 256.167,248.167 255.5,248.5C 253.197,249.411 251.697,251.077 251,253.5C 249.667,252.833 248.667,251.833 248,250.5C 247.026,252.878 246.359,252.544 246,249.5C 245.014,250.171 243.847,250.171 242.5,249.5C 242.047,247.435 241.047,245.768 239.5,244.5C 238.5,244.167 237.833,243.5 237.5,242.5C 237.389,241.883 237.056,241.383 236.5,241C 224.627,238.358 218.293,243.192 217.5,255.5C 215.026,257.898 213.692,260.898 213.5,264.5C 216.01,264.946 218.01,264.28 219.5,262.5C 219.557,261.391 219.89,260.391 220.5,259.5C 221.79,258.942 222.623,257.942 223,256.5C 222.743,261.143 222.243,265.809 221.5,270.5C 220.475,271.374 219.808,272.541 219.5,274C 220.407,279.12 220.407,284.286 219.5,289.5C 218.448,289.351 217.448,289.517 216.5,290C 218.007,290.837 218.507,292.004 218,293.5C 215.313,292.287 212.48,291.62 209.5,291.5C 208.498,289.989 207.831,288.322 207.5,286.5C 204.574,285.539 201.574,284.873 198.5,284.5C 197.833,283.167 196.833,282.167 195.5,281.5C 194.415,279.413 192.749,278.08 190.5,277.5C 190.446,275.368 189.446,274.035 187.5,273.5C 187.297,271.956 186.63,270.622 185.5,269.5C 186.619,266.921 185.619,265.588 182.5,265.5C 181.066,262.953 179.4,260.619 177.5,258.5C 176.06,253.488 174.06,248.821 171.5,244.5C 170.549,243.081 170.216,241.415 170.5,239.5C 168.296,223.811 169.629,208.478 174.5,193.5C 175.674,192.486 176.34,191.153 176.5,189.5C 176.557,188.391 176.89,187.391 177.5,186.5C 180.241,184.025 182.241,181.025 183.5,177.5C 183.328,176.508 183.662,175.842 184.5,175.5C 189.298,171.203 193.965,166.703 198.5,162C 201.059,160.223 203.726,158.723 206.5,157.5C 210.426,156.081 214.259,154.414 218,152.5C 224.266,154.912 230.433,157.245 236.5,159.5C 234.031,160.168 231.698,160.835 229.5,161.5 Z M 233.5,226.5 C 235.793,229.906 236.126,233.573 234.5,237.5C 231.545,239.09 228.878,238.757 226.5,236.5C 224.42,229.98 226.753,226.647 233.5,226.5 Z"/></g>
<g><path style="opacity:0.251" fill="#9a8b31" d="M 284.5,153.5 C 287.704,154.383 290.371,156.05 292.5,158.5C 289.296,157.617 286.629,155.95 284.5,153.5 Z"/></g>
<g><path style="opacity:0.169" fill="#8e792a" d="M 292.5,158.5 C 295.089,159.419 297.089,161.086 298.5,163.5C 295.911,162.581 293.911,160.914 292.5,158.5 Z"/></g>
<g><path style="opacity:0.125" fill="#958829" d="M 298.5,163.5 C 302.833,165.833 306.167,169.167 308.5,173.5C 304.833,170.5 301.5,167.167 298.5,163.5 Z"/></g>
<g><path style="opacity:0.43" fill="#85762e" d="M 229.5,161.5 C 231.099,161.232 232.432,161.566 233.5,162.5C 226.474,162.528 224.14,165.862 226.5,172.5C 225.833,172.167 225.167,171.833 224.5,171.5C 223.309,166.531 224.976,163.197 229.5,161.5 Z"/></g>
<g><path style="opacity:0.122" fill="#b4a442" d="M 263.5,163.5 C 262.735,166.096 262.401,168.763 262.5,171.5C 261.848,170.551 261.514,169.385 261.5,168C 261.307,165.992 261.974,164.492 263.5,163.5 Z"/></g>
<g><path style="opacity:0.804" fill="#7f6e2c" d="M 235.5,164.5 C 236.638,167.304 236.805,170.304 236,173.5C 235.329,174.252 234.496,174.586 233.5,174.5C 235.181,171.418 235.848,168.085 235.5,164.5 Z"/></g>
<g><path style="opacity:0.463" fill="#958834" d="M 263.5,173.5 C 268.85,175.664 271.85,173.831 272.5,168C 271.384,162.8 268.384,161.3 263.5,163.5C 266.839,160.688 270.005,161.021 273,164.5C 274.923,172.229 272.09,175.729 264.5,175C 263.944,174.617 263.611,174.117 263.5,173.5 Z"/></g>
<g><path style="opacity:0.271" fill="#8b7f26" d="M 226.5,172.5 C 228.479,174.168 230.812,174.834 233.5,174.5C 231.712,175.622 229.712,175.789 227.5,175C 226.748,174.329 226.414,173.496 226.5,172.5 Z"/></g>
<g><path style="opacity:0.392" fill="#9f8f35" d="M 308.5,173.5 C 310.262,174.262 311.262,175.596 311.5,177.5C 309.738,176.738 308.738,175.404 308.5,173.5 Z"/></g>
<g><path style="opacity:0.651" fill="#5d4e0d" d="M 262.5,177.5 C 263.793,176.842 265.293,176.508 267,176.5C 269.544,176.336 271.71,177.003 273.5,178.5C 271.708,178.634 270.042,178.301 268.5,177.5C 266.5,177.5 264.5,177.5 262.5,177.5 Z"/></g>
<g><path style="opacity:0.02" fill="#d8c34f" d="M 262.5,177.5 C 264.5,177.5 266.5,177.5 268.5,177.5C 265.655,178.344 262.655,179.01 259.5,179.5C 259.973,178.094 260.973,177.427 262.5,177.5 Z"/></g>
<g><path style="opacity:0.361" fill="#9f923a" d="M 273.5,178.5 C 277.158,179.797 278.824,182.463 278.5,186.5C 277.361,183.566 275.694,180.9 273.5,178.5 Z"/></g>
<g><path style="opacity:0.467" fill="#8f7e29" d="M 183.5,177.5 C 182.241,181.025 180.241,184.025 177.5,186.5C 178.759,182.975 180.759,179.975 183.5,177.5 Z"/></g>
<g><path style="opacity:0.427" fill="#8e7e21" d="M 311.5,177.5 C 313.262,178.262 314.262,179.596 314.5,181.5C 312.738,180.738 311.738,179.404 311.5,177.5 Z"/></g>
<g><path style="opacity:0.184" fill="#b3a83e" d="M 259.5,179.5 C 259.065,182.157 258.065,184.491 256.5,186.5C 256.552,183.654 257.552,181.32 259.5,179.5 Z"/></g>
<g><path style="opacity:0.235" fill="#978830" d="M 236.5,178.5 C 237.833,178.5 239.167,178.5 240.5,178.5C 242.844,185.849 245.177,193.182 247.5,200.5C 243.149,201.467 240.815,199.8 240.5,195.5C 241.364,196.688 242.364,197.855 243.5,199C 244.635,199.749 245.635,199.583 246.5,198.5C 243.615,191.397 240.282,184.73 236.5,178.5 Z"/></g>
<g><path style="opacity:0.298" fill="#a59935" d="M 256.5,186.5 C 256.346,188.97 255.346,190.97 253.5,192.5C 253.461,189.911 254.461,187.911 256.5,186.5 Z"/></g>
<g><path style="opacity:0.141" fill="#b49f44" d="M 176.5,189.5 C 176.34,191.153 175.674,192.486 174.5,193.5C 174.229,191.62 174.896,190.287 176.5,189.5 Z"/></g>
<g><path style="opacity:0.502" fill="#9d8a2a" d="M 228.5,210.5 C 228.854,214.637 228.354,218.637 227,222.5C 224.959,223.423 222.792,223.756 220.5,223.5C 220.894,213.769 221.894,204.103 223.5,194.5C 223.561,192.279 222.895,191.946 221.5,193.5C 221.585,191.071 222.585,189.071 224.5,187.5C 224.833,188.333 225.167,189.167 225.5,190C 223.956,200.492 222.623,210.992 221.5,221.5C 223.006,222.747 224.506,222.747 226,221.5C 227.014,217.759 227.847,214.093 228.5,210.5 Z"/></g>
<g><path style="opacity:0.765" fill="#96842d" d="M 259.5,203.5 C 259.665,200.482 259.498,197.482 259,194.5C 257.951,199.051 255.118,201.051 250.5,200.5C 250.12,198.302 250.787,196.635 252.5,195.5C 252.461,196.583 252.127,197.583 251.5,198.5C 252.365,199.583 253.365,199.749 254.5,199C 257.042,195.369 259.209,191.536 261,187.5C 261.374,188.416 261.874,189.25 262.5,190C 261.632,194.622 260.632,199.122 259.5,203.5 Z"/></g>
<g><path style="opacity:0.627" fill="#827424" d="M 318.5,189.5 C 321.668,194.667 323.668,200.334 324.5,206.5C 322.051,201.064 320.051,195.398 318.5,189.5 Z"/></g>
<g><path style="opacity:0.729" fill="#93812d" d="M 278.5,186.5 C 279.79,187.058 280.623,188.058 281,189.5C 282.759,193.009 283.926,196.675 284.5,200.5C 282.473,200.662 280.473,200.495 278.5,200C 277.853,198.391 277.02,196.891 276,195.5C 275.945,204.85 276.445,214.183 277.5,223.5C 274.918,223.975 272.918,223.308 271.5,221.5C 273.042,222.301 274.708,222.634 276.5,222.5C 275.529,211.627 274.196,200.793 272.5,190C 272.63,188.941 273.13,188.108 274,187.5C 275.941,191.048 277.607,194.714 279,198.5C 280.494,199.747 281.994,199.747 283.5,198.5C 281.437,194.638 279.77,190.638 278.5,186.5 Z"/></g>
<g><path style="opacity:0.153" fill="#a0903b" d="M 223.5,177.5 C 228.032,177.182 232.366,177.515 236.5,178.5C 232.486,178.334 228.486,178.501 224.5,179C 223.667,179.833 222.833,180.667 222,181.5C 219.534,187.424 217.368,193.424 215.5,199.5C 216.552,199.649 217.552,199.483 218.5,199C 219.609,197.124 220.609,195.291 221.5,193.5C 221.951,199.382 219.284,201.716 213.5,200.5C 216.039,192.428 219.372,184.762 223.5,177.5 Z"/></g>
<g><path style="opacity:0.137" fill="#aa9637" d="M 240.5,195.5 C 239.778,195.082 239.278,194.416 239,193.5C 239.826,203.448 240.326,213.448 240.5,223.5C 237.918,223.975 235.918,223.308 234.5,221.5C 236.042,222.301 237.708,222.634 239.5,222.5C 238.259,210.842 237.426,199.175 237,187.5C 238.993,189.818 240.159,192.484 240.5,195.5 Z"/></g>
<g><path style="opacity:0.525" fill="#907a21" d="M 270.5,215.5 C 269.153,212.337 267.986,209.004 267,205.5C 266.722,206.416 266.222,207.082 265.5,207.5C 265.247,205.173 265.914,203.173 267.5,201.5C 269.355,205.955 270.355,210.622 270.5,215.5 Z"/></g>
<g><path style="opacity:0.294" fill="#a99728" d="M 232.5,208.5 C 231.71,207.391 231.21,206.058 231,204.5C 230.015,206.175 229.181,207.842 228.5,209.5C 228.28,206.6 228.946,203.933 230.5,201.5C 231.086,201.709 231.586,202.043 232,202.5C 232.495,204.473 232.662,206.473 232.5,208.5 Z"/></g>
<g><path style="opacity:0.11" fill="#a89737" d="M 232.5,208.5 C 233.895,212.591 234.562,216.924 234.5,221.5C 233.105,217.409 232.438,213.076 232.5,208.5 Z"/></g>
<g><path style="opacity:0.239" fill="#a59332" d="M 324.5,207.5 C 325.29,208.609 325.79,209.942 326,211.5C 326.667,219.167 326.667,226.833 326,234.5C 324.966,239.758 323.466,244.758 321.5,249.5C 322.035,244.025 323.202,238.692 325,233.5C 325.536,224.82 325.37,216.154 324.5,207.5 Z"/></g>
<g><path style="opacity:0.357" fill="#928030" d="M 259.5,207.5 C 259.587,212.537 259.254,217.537 258.5,222.5C 260.144,222.714 261.644,222.38 263,221.5C 263.76,217.012 264.594,212.678 265.5,208.5C 265.622,213.232 265.122,217.898 264,222.5C 261.959,223.423 259.792,223.756 257.5,223.5C 257.527,217.949 258.194,212.616 259.5,207.5 Z"/></g>
<g><path style="opacity:0.353" fill="#a89837" d="M 174.5,193.5 C 169.629,208.478 168.296,223.811 170.5,239.5C 167.802,226.949 167.969,214.282 171,201.5C 171.705,198.524 172.871,195.858 174.5,193.5 Z"/></g>
<g><path style="opacity:0.184" fill="#a89840" d="M 262.5,227.5 C 262.833,227.5 263.167,227.5 263.5,227.5C 262.612,230.054 262.279,232.721 262.5,235.5C 261.549,234.081 261.216,232.415 261.5,230.5C 261.263,229.209 261.596,228.209 262.5,227.5 Z"/></g>
<g><path style="opacity:0.455" fill="#8a7a2f" d="M 233.5,226.5 C 226.753,226.647 224.42,229.98 226.5,236.5C 223.661,232.834 223.995,229.334 227.5,226C 229.712,225.211 231.712,225.378 233.5,226.5 Z"/></g>
<g><path style="opacity:0.106" fill="#a28f39" d="M 233.5,226.5 C 234.496,226.414 235.329,226.748 236,227.5C 236.667,230.5 236.667,233.5 236,236.5C 235.617,237.056 235.117,237.389 234.5,237.5C 236.126,233.573 235.793,229.906 233.5,226.5 Z"/></g>
<g><path style="opacity:0.306" fill="#877825" d="M 226.5,236.5 C 228.878,238.757 231.545,239.09 234.5,237.5C 233.688,238.993 232.355,239.66 230.5,239.5C 228.018,239.89 226.685,238.89 226.5,236.5 Z"/></g>
<g><path style="opacity:0.322" fill="#8e802b" d="M 262.5,235.5 C 267.413,240.103 270.747,239.103 272.5,232.5C 271.609,226.931 268.609,225.264 263.5,227.5C 263.611,226.883 263.944,226.383 264.5,226C 272.332,225.179 275.165,228.679 273,236.5C 271.745,238.594 269.912,239.594 267.5,239.5C 264.623,239.619 262.956,238.286 262.5,235.5 Z"/></g>
<g><path style="opacity:0.271" fill="#948535" d="M 271.5,241.5 C 268.482,241.335 265.482,241.502 262.5,242C 260.251,243.352 258.584,245.185 257.5,247.5C 257.461,244.911 258.461,242.911 260.5,241.5C 264.268,240.213 267.935,240.213 271.5,241.5 Z"/></g>
<g><path style="opacity:0.161" fill="#bca33d" d="M 271.5,241.5 C 275.167,241.833 277.167,243.833 277.5,247.5C 275.833,245.167 273.833,243.167 271.5,241.5 Z"/></g>
<g><path style="opacity:0.09" fill="#a18e3b" d="M 237.5,242.5 C 233.095,241.008 228.762,241.175 224.5,243C 221.759,246.987 219.426,251.153 217.5,255.5C 218.293,243.192 224.627,238.358 236.5,241C 237.056,241.383 237.389,241.883 237.5,242.5 Z"/></g>
<g><path style="opacity:0.557" fill="#92832f" d="M 239.5,244.5 C 241.047,245.768 242.047,247.435 242.5,249.5C 245.163,254.155 246.829,259.155 247.5,264.5C 245.801,264.66 244.134,264.494 242.5,264C 241.748,263.329 241.414,262.496 241.5,261.5C 242.936,263.319 244.603,263.652 246.5,262.5C 243.592,256.691 241.259,250.691 239.5,244.5 Z"/></g>
<g><path style="opacity:0.431" fill="#8c8028" d="M 277.5,247.5 C 278.931,248.78 279.598,250.447 279.5,252.5C 278.069,251.22 277.402,249.553 277.5,247.5 Z"/></g>
<g><path style="opacity:0.345" fill="#998a33" d="M 321.5,249.5 C 320.941,252.943 319.607,255.943 317.5,258.5C 318.042,255.088 319.375,252.088 321.5,249.5 Z"/></g>
<g><path style="opacity:0.431" fill="#7f702a" d="M 279.5,252.5 C 280.79,253.058 281.623,254.058 282,255.5C 283.43,258.353 284.263,261.353 284.5,264.5C 282.167,264.5 279.833,264.5 277.5,264.5C 277.5,262.833 277.5,261.167 277.5,259.5C 278.147,263.14 280.147,264.14 283.5,262.5C 281.6,259.371 280.267,256.037 279.5,252.5 Z"/></g>
<g><path style="opacity:0.373" fill="#8c7e28" d="M 171.5,244.5 C 174.06,248.821 176.06,253.488 177.5,258.5C 174.432,254.356 172.432,249.689 171.5,244.5 Z"/></g>
<g><path style="opacity:0.6" fill="#a38f2b" d="M 221.5,283.5 C 221.5,279.167 221.5,274.833 221.5,270.5C 222.243,265.809 222.743,261.143 223,256.5C 222.623,257.942 221.79,258.942 220.5,259.5C 220.89,256.31 222.223,253.643 224.5,251.5C 224.833,252.333 225.167,253.167 225.5,254C 224.07,263.965 222.737,273.798 221.5,283.5 Z"/></g>
<g><path style="opacity:0.796" fill="#8a7627" d="M 277.5,259.5 C 276.883,259.389 276.383,259.056 276,258.5C 276.442,268.142 276.942,277.809 277.5,287.5C 271.5,288.833 269.167,286.5 270.5,280.5C 271.302,281.952 271.802,283.618 272,285.5C 273.356,286.38 274.856,286.714 276.5,286.5C 275.526,275.449 274.193,264.449 272.5,253.5C 272.808,252.692 273.308,252.025 274,251.5C 275.454,254.071 276.62,256.738 277.5,259.5 Z"/></g>
<g><path style="opacity:0.427" fill="#917e25" d="M 177.5,258.5 C 179.4,260.619 181.066,262.953 182.5,265.5C 183.11,266.391 183.443,267.391 183.5,268.5C 180.498,265.839 178.498,262.505 177.5,258.5 Z"/></g>
<g><path style="opacity:0.235" fill="#aa9740" d="M 317.5,258.5 C 317.573,260.027 316.906,261.027 315.5,261.5C 315.427,259.973 316.094,258.973 317.5,258.5 Z"/></g>
<g><path style="opacity:0.208" fill="#a09440" d="M 217.5,255.5 C 216.844,257.484 216.178,259.484 215.5,261.5C 215.833,262.167 216.167,262.833 216.5,263.5C 217.417,262.873 218.417,262.539 219.5,262.5C 218.01,264.28 216.01,264.946 213.5,264.5C 213.692,260.898 215.026,257.898 217.5,255.5 Z"/></g>
<g><path style="opacity:0.208" fill="#a0912e" d="M 315.5,261.5 C 315.771,263.38 315.104,264.713 313.5,265.5C 313.66,263.847 314.326,262.514 315.5,261.5 Z"/></g>
<g><path style="opacity:0.993" fill="#443616" d="M 182.5,265.5 C 185.619,265.588 186.619,266.921 185.5,269.5C 186.63,270.622 187.297,271.956 187.5,273.5C 185.413,272.415 184.08,270.749 183.5,268.5C 183.443,267.391 183.11,266.391 182.5,265.5 Z"/></g>
<g><path style="opacity:0.059" fill="#ab983a" d="M 313.5,265.5 C 313.262,267.404 312.262,268.738 310.5,269.5C 310.738,267.596 311.738,266.262 313.5,265.5 Z"/></g>
<g><path style="opacity:0.475" fill="#a28a25" d="M 232.5,271.5 C 231.732,270.737 231.232,269.737 231,268.5C 230.015,270.175 229.181,271.842 228.5,273.5C 228.264,270.171 229.097,267.171 231,264.5C 232.202,266.677 232.702,269.011 232.5,271.5 Z"/></g>
<g><path style="opacity:0.533" fill="#947f22" d="M 270.5,279.5 C 269.013,276.055 267.846,272.388 267,268.5C 266.768,269.737 266.268,270.737 265.5,271.5C 265.298,269.011 265.798,266.677 267,264.5C 269.231,269.196 270.397,274.196 270.5,279.5 Z"/></g>
<g><path style="opacity:1" fill="#483d1a" d="M 310.5,269.5 C 309.92,271.749 308.587,273.415 306.5,274.5C 305.833,274.833 305.167,275.167 304.5,275.5C 304.5,274.5 304.5,273.5 304.5,272.5C 305.5,272.5 306.5,272.5 307.5,272.5C 307.121,269.433 308.121,268.433 310.5,269.5 Z"/></g>
<g><path style="opacity:0.176" fill="#ab9837" d="M 239.5,256.5 C 238.778,256.082 238.278,255.416 238,254.5C 239.215,265.423 240.049,276.423 240.5,287.5C 238.585,287.784 236.919,287.451 235.5,286.5C 236.833,286.5 238.167,286.5 239.5,286.5C 238.499,274.82 237.665,263.153 237,251.5C 238.883,252.653 239.716,254.319 239.5,256.5 Z"/></g>
<g><path style="opacity:0.486" fill="#918127" d="M 187.5,273.5 C 189.446,274.035 190.446,275.368 190.5,277.5C 189.026,276.564 188.026,275.23 187.5,273.5 Z"/></g>
<g><path style="opacity:0.541" fill="#9f8730" d="M 190.5,277.5 C 192.749,278.08 194.415,279.413 195.5,281.5C 193.251,280.92 191.585,279.587 190.5,277.5 Z"/></g>
<g><path style="opacity:0.694" fill="#8c7d28" d="M 232.5,271.5 C 233.709,275.618 234.376,279.951 234.5,284.5C 232.946,280.433 232.28,276.1 232.5,271.5 Z"/></g>
<g><path style="opacity:0.031" fill="#bba13e" d="M 306.5,274.5 C 304.833,278.167 302.167,280.833 298.5,282.5C 300.5,280.167 302.5,277.833 304.5,275.5C 305.167,275.167 305.833,274.833 306.5,274.5 Z"/></g>
<g><path style="opacity:0.039" fill="#baa932" d="M 195.5,281.5 C 196.833,282.167 197.833,283.167 198.5,284.5C 196.5,284.5 195.5,283.5 195.5,281.5 Z"/></g>
<g><path style="opacity:0.596" fill="#968930" d="M 228.5,274.5 C 228.854,278.637 228.354,282.637 227,286.5C 225.057,287.807 223.223,287.807 221.5,286.5C 223.144,286.714 224.644,286.38 226,285.5C 226.918,281.72 227.751,278.054 228.5,274.5 Z"/></g>
<g><path style="opacity:0.267" fill="#9e8e36" d="M 296.5,284.5 C 294.853,286.326 292.853,287.66 290.5,288.5C 291.802,286.178 293.802,284.845 296.5,284.5 Z"/></g>
<g><path style="opacity:0.98" fill="#3d3114" d="M 198.5,284.5 C 201.574,284.873 204.574,285.539 207.5,286.5C 207.831,288.322 208.498,289.989 209.5,291.5C 205.024,290.343 201.358,288.01 198.5,284.5 Z"/></g>
<g><path style="opacity:0.078" fill="#988835" d="M 257.5,247.5 C 255.796,252.581 253.796,257.581 251.5,262.5C 252.365,263.583 253.365,263.749 254.5,263C 256.936,260.293 258.436,257.127 259,253.5C 260.085,251.343 261.251,251.176 262.5,253C 260.319,264.034 258.986,275.201 258.5,286.5C 260.39,286.703 261.89,286.037 263,284.5C 263.839,280.363 264.673,276.363 265.5,272.5C 265.867,276.967 265.367,281.3 264,285.5C 262.211,287.229 260.044,287.896 257.5,287.5C 258.13,277.814 258.63,268.147 259,258.5C 257.951,263.051 255.118,265.051 250.5,264.5C 251.764,259.04 253.431,253.707 255.5,248.5C 256.167,248.167 256.833,247.833 257.5,247.5 Z"/></g>
<g><path style="opacity:0.353" fill="#968829" d="M 289.5,289.5 C 287.819,291.008 285.819,292.008 283.5,292.5C 284.911,290.461 286.911,289.461 289.5,289.5 Z"/></g>
<g><path style="opacity:0.412" fill="#907d29" d="M 283.5,292.5 C 281.967,294.245 279.967,295.245 277.5,295.5C 279.033,293.755 281.033,292.755 283.5,292.5 Z"/></g>
<g><path style="opacity:0.043" fill="#a6953c" d="M 277.5,295.5 C 273.498,297.61 269.165,298.943 264.5,299.5C 268.502,297.39 272.835,296.057 277.5,295.5 Z"/></g>
<g><path style="opacity:0.588" fill="#867428" d="M 217.5,295.5 C 224.084,297.304 230.75,298.804 237.5,300C 246.516,300.599 255.516,300.432 264.5,299.5C 248.435,303.585 232.768,302.252 217.5,295.5 Z"/></g>
<g><path style="opacity:0.302" fill="#aa9a33" d="M 97.5,306.5 C 94.6122,305.99 92.2789,306.656 90.5,308.5C 89.596,307.791 89.2627,306.791 89.5,305.5C 92.3854,305.194 95.0521,305.527 97.5,306.5 Z"/></g>
<g><path style="opacity:0.278" fill="#a59539" d="M 109.5,306.5 C 105.671,305.931 102.337,306.598 99.5,308.5C 98.8333,308.5 98.1667,308.5 97.5,308.5C 97.5,307.833 97.5,307.167 97.5,306.5C 101.601,305.209 105.601,305.209 109.5,306.5 Z"/></g>
<g><path style="opacity:0.271" fill="#a29340" d="M 136.5,306.5 C 137.274,305.853 138.274,305.52 139.5,305.5C 141.355,305.34 142.688,306.007 143.5,307.5C 141.236,306.781 138.903,306.448 136.5,306.5 Z"/></g>
<g><path style="opacity:0.278" fill="#a7973b" d="M 156.5,306.5 C 152.988,305.945 149.988,306.612 147.5,308.5C 146.596,307.791 146.263,306.791 146.5,305.5C 150.042,305.187 153.375,305.521 156.5,306.5 Z"/></g>
<g><path style="opacity:0.263" fill="#9a8d32" d="M 203.5,306.5 C 202.5,306.5 201.5,306.5 200.5,306.5C 198.473,306.338 196.473,306.505 194.5,307C 195.056,307.383 195.389,307.883 195.5,308.5C 194.833,308.833 194.167,309.167 193.5,309.5C 193.5,308.5 193.5,307.5 193.5,306.5C 189.818,306.335 186.152,306.501 182.5,307C 183.252,307.671 183.586,308.504 183.5,309.5C 181.824,308.817 181.157,307.483 181.5,305.5C 189.019,305.175 196.352,305.508 203.5,306.5 Z"/></g>
<g><path style="opacity:0.294" fill="#92852a" d="M 221.5,306.5 C 225.634,305.515 229.968,305.182 234.5,305.5C 234.343,306.873 234.51,308.207 235,309.5C 235.278,308.584 235.778,307.918 236.5,307.5C 236.166,310.188 236.832,312.521 238.5,314.5C 236.297,313.116 234.297,311.449 232.5,309.5C 233.404,308.791 233.737,307.791 233.5,306.5C 229.833,306.5 226.167,306.5 222.5,306.5C 222.167,306.5 221.833,306.5 221.5,306.5 Z"/></g>
<g><path style="opacity:0.275" fill="#a1922d" d="M 317.5,306.5 C 315.517,306.157 314.183,306.824 313.5,308.5C 312.5,308.5 311.5,308.5 310.5,308.5C 310.03,307.307 309.03,306.64 307.5,306.5C 305.97,306.64 304.97,307.307 304.5,308.5C 303.596,307.791 303.263,306.791 303.5,305.5C 308.501,305.726 313.168,306.059 317.5,306.5 Z"/></g>
<g><path style="opacity:0.278" fill="#8d7c2c" d="M 338.5,306.5 C 338.351,307.552 338.517,308.552 339,309.5C 340.356,308.62 341.856,308.286 343.5,308.5C 343.797,312.767 343.464,316.934 342.5,321C 343.833,321.667 345.167,321.667 346.5,321C 345.536,316.934 345.203,312.767 345.5,308.5C 347.099,308.232 348.432,308.566 349.5,309.5C 348.5,309.5 347.5,309.5 346.5,309.5C 345.989,313.783 346.656,317.783 348.5,321.5C 345.833,322.833 343.167,322.833 340.5,321.5C 342.676,317.729 343.009,313.729 341.5,309.5C 339.453,310.904 337.787,310.571 336.5,308.5C 335.848,307.275 334.681,306.608 333,306.5C 331.319,306.608 330.152,307.275 329.5,308.5C 329.167,308.5 328.833,308.5 328.5,308.5C 328.209,307.351 327.376,306.684 326,306.5C 325.167,306.833 324.333,307.167 323.5,307.5C 325.632,310.614 325.966,313.947 324.5,317.5C 323.081,316.995 322.415,315.995 322.5,314.5C 324.101,315.643 324.767,314.976 324.5,312.5C 324.314,310.42 323.314,308.92 321.5,308C 321.957,307.586 322.291,307.086 322.5,306.5C 327.886,305.218 333.219,305.218 338.5,306.5 Z"/></g>
<g><path style="opacity:0.286" fill="#a49436" d="M 338.5,306.5 C 345.313,305.509 352.313,305.175 359.5,305.5C 359.737,306.791 359.404,307.791 358.5,308.5C 358.03,307.307 357.03,306.64 355.5,306.5C 354.5,306.667 353.5,306.833 352.5,307C 353.823,311.6 353.823,316.1 352.5,320.5C 352.665,316.818 352.499,313.152 352,309.5C 351.023,310.774 350.189,310.774 349.5,309.5C 350.404,308.791 350.737,307.791 350.5,306.5C 346.5,306.5 342.5,306.5 338.5,306.5 Z"/></g>
<g><path style="opacity:0.424" fill="#a18419" d="M 368.5,306.5 C 367.391,306.557 366.391,306.89 365.5,307.5C 366.053,305.448 367.053,305.115 368.5,306.5 Z"/></g>
<g><path style="opacity:0.312" fill="#92832f" d="M 401.5,306.5 C 397.509,305.872 396.176,307.205 397.5,310.5C 396.5,309.833 395.5,309.167 394.5,308.5C 393.082,306.692 391.082,306.025 388.5,306.5C 387.833,306.5 387.167,306.5 386.5,306.5C 382.5,306.5 378.5,306.5 374.5,306.5C 374.351,307.552 374.517,308.552 375,309.5C 376.356,308.62 377.856,308.286 379.5,308.5C 379.717,313.23 379.383,317.897 378.5,322.5C 377.624,322.631 376.957,322.298 376.5,321.5C 378.676,317.729 379.009,313.729 377.5,309.5C 376.264,310.246 374.93,310.579 373.5,310.5C 373.5,308.833 373.5,307.167 373.5,305.5C 383.015,305.173 392.348,305.506 401.5,306.5 Z"/></g>
<g><path style="opacity:0.929" fill="#77682f" d="M 243.5,306.5 C 242.325,306.281 241.325,306.614 240.5,307.5C 241.612,308.265 242.279,309.265 242.5,310.5C 240.804,308.871 239.804,309.204 239.5,311.5C 238.978,309.781 237.978,308.448 236.5,307.5C 238.655,305.466 240.988,305.133 243.5,306.5 Z"/></g>
<g><path style="opacity:0.859" fill="#6a5c25" d="M 280.5,309.5 C 279.577,308.697 278.577,308.53 277.5,309C 278.622,312.409 278.789,315.909 278,319.5C 275.931,320.264 273.764,320.764 271.5,321C 272.056,321.383 272.389,321.883 272.5,322.5C 268.662,321.316 266.662,318.649 266.5,314.5C 266.759,312.013 267.759,310.013 269.5,308.5C 272.232,305.101 275.566,304.601 279.5,307C 280.252,307.671 280.586,308.504 280.5,309.5 Z M 271.5,309.5 C 273.467,309.261 275.301,309.594 277,310.5C 277.777,313.429 277.61,316.263 276.5,319C 274.888,319.72 273.388,319.554 272,318.5C 271.502,315.518 271.335,312.518 271.5,309.5 Z"/></g>
<g><path style="opacity:0.976" fill="#685b22" d="M 165.5,306.5 C 168.64,305.359 171.973,305.192 175.5,306C 177.751,306.748 179.084,308.248 179.5,310.5C 178.542,310.047 177.708,309.381 177,308.5C 176.517,309.448 176.351,310.448 176.5,311.5C 175.151,310.047 173.485,309.047 171.5,308.5C 171.167,308.5 170.833,308.5 170.5,308.5C 171.609,307.71 172.942,307.21 174.5,307C 171.518,306.502 168.518,306.335 165.5,306.5 Z"/></g>
<g><path style="opacity:0.973" fill="#261e0b" d="M 291.5,312.5 C 292.031,314.544 293.198,316.211 295,317.5C 295.167,316 295.333,314.5 295.5,313C 295.431,311.014 294.765,309.514 293.5,308.5C 293.791,307.351 294.624,306.684 296,306.5C 297.376,306.684 298.209,307.351 298.5,308.5C 296.725,312.386 295.892,316.72 296,321.5C 295.329,320.748 294.496,320.414 293.5,320.5C 291.674,318.853 290.34,316.853 289.5,314.5C 289.217,313.711 288.717,313.044 288,312.5C 287.341,315.888 287.508,319.221 288.5,322.5C 287.167,322.5 285.833,322.5 284.5,322.5C 286.152,316.914 285.818,311.581 283.5,306.5C 287.913,305.522 290.58,307.522 291.5,312.5 Z"/></g>
<g><path style="opacity:0.278" fill="#9c8821" d="M 298.5,308.5 C 298.209,307.351 297.376,306.684 296,306.5C 294.624,306.684 293.791,307.351 293.5,308.5C 292.596,307.791 292.263,306.791 292.5,305.5C 294.833,305.5 297.167,305.5 299.5,305.5C 299.737,306.791 299.404,307.791 298.5,308.5 Z"/></g>
<g><path style="opacity:0.986" fill="#211a04" d="M 310.5,308.5 C 308.919,313.015 309.252,317.348 311.5,321.5C 309.604,322.466 307.604,322.799 305.5,322.5C 306.052,319.884 306.386,317.217 306.5,314.5C 306.461,312.048 305.794,310.048 304.5,308.5C 304.97,307.307 305.97,306.64 307.5,306.5C 309.03,306.64 310.03,307.307 310.5,308.5 Z"/></g>
<g><path style="opacity:0.043" fill="#dfc165" d="M 129.5,309.5 C 127.708,309.366 126.042,309.699 124.5,310.5C 126.042,309.699 127.708,309.366 129.5,309.5 Z"/></g>
<g><path style="opacity:0.114" fill="#b2a649" d="M 131.5,306.5 C 132.167,307.167 132.833,307.833 133.5,308.5C 132.586,311.728 132.253,315.061 132.5,318.5C 131.965,315.366 130.965,312.366 129.5,309.5C 131.048,309.179 131.715,308.179 131.5,306.5 Z"/></g>
<g><path style="opacity:0.31" fill="#9e8e28" d="M 265.5,308.5 C 265.03,307.307 264.03,306.64 262.5,306.5C 260.97,306.64 259.97,307.307 259.5,308.5C 258.833,309.167 258.167,309.833 257.5,310.5C 257.267,308.938 256.6,307.605 255.5,306.5C 256.496,306.414 257.329,306.748 258,307.5C 260.456,305.679 263.289,305.012 266.5,305.5C 266.737,306.791 266.404,307.791 265.5,308.5 Z"/></g>
<g><path style="opacity:0.729" fill="#726129" d="M 155.5,309.5 C 154.5,309.5 153.5,309.5 152.5,309.5C 152.5,310.5 152.5,311.5 152.5,312.5C 153.5,312.5 154.5,312.5 155.5,312.5C 154.432,313.434 153.099,313.768 151.5,313.5C 151.5,311.833 151.5,310.167 151.5,308.5C 153.099,308.232 154.432,308.566 155.5,309.5 Z"/></g>
<g><path style="opacity:0.945" fill="#3b3112" d="M 200.5,306.5 C 201.5,306.5 202.5,306.5 203.5,306.5C 206.254,308.053 207.087,310.386 206,313.5C 204.056,315.221 201.89,316.554 199.5,317.5C 199.5,315.5 199.5,313.5 199.5,311.5C 201.496,313.917 202.496,313.25 202.5,309.5C 201.209,309.263 200.209,309.596 199.5,310.5C 198.957,310.44 198.624,310.107 198.5,309.5C 199.612,308.735 200.279,307.735 200.5,306.5 Z"/></g>
<g><path style="opacity:0.977" fill="#1a1304" d="M 265.5,308.5 C 264.206,310.048 263.539,312.048 263.5,314.5C 263.539,316.952 264.206,318.952 265.5,320.5C 266.043,320.56 266.376,320.893 266.5,321.5C 264.955,322.452 263.288,322.785 261.5,322.5C 261.021,320.039 261.021,317.372 261.5,314.5C 261.461,312.048 260.794,310.048 259.5,308.5C 259.97,307.307 260.97,306.64 262.5,306.5C 264.03,306.64 265.03,307.307 265.5,308.5 Z"/></g>
<g><path style="opacity:0.971" fill="#140900" d="M 338.5,306.5 C 342.5,306.5 346.5,306.5 350.5,306.5C 350.737,307.791 350.404,308.791 349.5,309.5C 348.432,308.566 347.099,308.232 345.5,308.5C 345.203,312.767 345.536,316.934 346.5,321C 345.167,321.667 343.833,321.667 342.5,321C 343.464,316.934 343.797,312.767 343.5,308.5C 341.856,308.286 340.356,308.62 339,309.5C 338.517,308.552 338.351,307.552 338.5,306.5 Z"/></g>
<g><path style="opacity:0.306" fill="#908432" d="M 423.5,306.5 C 419.486,306.334 415.486,306.501 411.5,307C 412.416,307.278 413.082,307.778 413.5,308.5C 413.5,308.833 413.5,309.167 413.5,309.5C 412.504,309.586 411.671,309.252 411,308.5C 410.148,309.571 409.315,310.571 408.5,311.5C 408.297,309.61 408.963,308.11 410.5,307C 409.552,306.517 408.552,306.351 407.5,306.5C 407.267,309.542 406.267,312.208 404.5,314.5C 405.453,311.577 405.786,308.744 405.5,306C 411.681,305.181 417.681,305.347 423.5,306.5 Z"/></g>
<g><path style="opacity:0.129" fill="#b6a445" d="M 216.5,306.5 C 213.753,306.187 211.086,306.52 208.5,307.5C 209.439,311.765 209.772,316.098 209.5,320.5C 209.167,320.5 208.833,320.5 208.5,320.5C 208.665,316.818 208.499,313.152 208,309.5C 206.255,305.995 207.589,304.661 212,305.5C 213.707,305.508 215.207,305.842 216.5,306.5 Z"/></g>
<g><path style="opacity:0.97" fill="#150e00" d="M 222.5,306.5 C 226.167,306.5 229.833,306.5 233.5,306.5C 233.737,307.791 233.404,308.791 232.5,309.5C 230.735,308.539 228.735,308.205 226.5,308.5C 226.5,310.167 226.5,311.833 226.5,313.5C 227.93,313.579 229.264,313.246 230.5,312.5C 231.429,313.689 231.762,315.022 231.5,316.5C 230.391,316.443 229.391,316.11 228.5,315.5C 228.167,315.5 227.833,315.5 227.5,315.5C 226.539,317.265 226.205,319.265 226.5,321.5C 225.448,321.649 224.448,321.483 223.5,321C 225.065,315.963 224.732,311.129 222.5,306.5 Z"/></g>
<g><path style="opacity:0.459" fill="#72631b" d="M 259.5,308.5 C 260.794,310.048 261.461,312.048 261.5,314.5C 261.021,317.372 261.021,320.039 261.5,322.5C 259.821,322.715 258.821,322.048 258.5,320.5C 259.117,320.389 259.617,320.056 260,319.5C 260.755,315.745 260.589,312.078 259.5,308.5 Z"/></g>
<g><path style="opacity:0.243" fill="#a18d3b" d="M 293.5,308.5 C 294.765,309.514 295.431,311.014 295.5,313C 295.333,314.5 295.167,316 295,317.5C 293.198,316.211 292.031,314.544 291.5,312.5C 292.458,312.953 293.292,313.619 294,314.5C 294.678,312.402 294.511,310.402 293.5,308.5 Z"/></g>
<g><path style="opacity:0.095" fill="#bdaa53" d="M 304.5,308.5 C 305.794,310.048 306.461,312.048 306.5,314.5C 306.386,317.217 306.052,319.884 305.5,322.5C 304.624,322.631 303.957,322.298 303.5,321.5C 305.748,317.348 306.081,313.015 304.5,308.5 Z"/></g>
<g><path style="opacity:0.971" fill="#170a00" d="M 109.5,306.5 C 109.672,307.492 109.338,308.158 108.5,308.5C 106.833,308.5 105.167,308.5 103.5,308.5C 103.5,312.5 103.5,316.5 103.5,320.5C 103.158,321.338 102.492,321.672 101.5,321.5C 102.097,316.706 101.43,312.373 99.5,308.5C 102.337,306.598 105.671,305.931 109.5,306.5 Z"/></g>
<g><path style="opacity:0.396" fill="#988b3c" d="M 232.5,309.5 C 230.833,309.5 229.167,309.5 227.5,309.5C 227.262,313.099 228.262,313.433 230.5,310.5C 231.086,310.709 231.586,311.043 232,311.5C 232.78,313.387 232.613,315.054 231.5,316.5C 231.762,315.022 231.429,313.689 230.5,312.5C 229.264,313.246 227.93,313.579 226.5,313.5C 226.5,311.833 226.5,310.167 226.5,308.5C 228.735,308.205 230.735,308.539 232.5,309.5 Z"/></g>
<g><path style="opacity:0.271" fill="#94862b" d="M 283.5,306.5 C 285.818,311.581 286.152,316.914 284.5,322.5C 283.761,322.631 283.094,322.464 282.5,322C 285.139,317.134 285.139,312.301 282.5,307.5C 282.624,306.893 282.957,306.56 283.5,306.5 Z"/></g>
<g><path style="opacity:0.48" fill="#766a26" d="M 298.5,308.5 C 297.559,313.07 297.226,317.737 297.5,322.5C 295.62,322.771 294.287,322.104 293.5,320.5C 294.496,320.414 295.329,320.748 296,321.5C 295.892,316.72 296.725,312.386 298.5,308.5 Z"/></g>
<g><path style="opacity:0.094" fill="#cbbb5a" d="M 336.5,308.5 C 335.167,312.5 335.167,316.5 336.5,320.5C 335.206,318.952 334.539,316.952 334.5,314.5C 334.539,312.048 335.206,310.048 336.5,308.5 Z"/></g>
<g><path style="opacity:1" fill="#1f1701" d="M 358.5,308.5 C 357.206,310.048 356.539,312.048 356.5,314.5C 356.539,316.952 357.206,318.952 358.5,320.5C 358.5,321.167 358.5,321.833 358.5,322.5C 356.076,322.808 353.743,322.474 351.5,321.5C 351.624,320.893 351.957,320.56 352.5,320.5C 353.823,316.1 353.823,311.6 352.5,307C 353.5,306.833 354.5,306.667 355.5,306.5C 357.03,306.64 358.03,307.307 358.5,308.5 Z"/></g>
<g><path style="opacity:0.075" fill="#ddca76" d="M 90.5,308.5 C 91.7943,310.048 92.4609,312.048 92.5,314.5C 92.4954,316.696 92.162,318.696 91.5,320.5C 91.1667,320.5 90.8333,320.5 90.5,320.5C 91.8333,316.5 91.8333,312.5 90.5,308.5 Z"/></g>
<g><path style="opacity:0.982" fill="#1d1605" d="M 136.5,306.5 C 138.903,306.448 141.236,306.781 143.5,307.5C 144.906,307.973 145.573,308.973 145.5,310.5C 145.54,313.881 145.207,317.214 144.5,320.5C 144.158,321.338 143.492,321.672 142.5,321.5C 141.761,321.631 141.094,321.464 140.5,321C 143.946,317.658 144.279,314.158 141.5,310.5C 140.833,310.5 140.5,310.167 140.5,309.5C 138.781,308.978 137.448,307.978 136.5,306.5 Z"/></g>
<g><path style="opacity:0.965" fill="#261e07" d="M 193.5,309.5 C 193.44,310.043 193.107,310.376 192.5,310.5C 189.51,308.138 187.51,308.471 186.5,311.5C 187.077,313.652 188.244,313.985 190,312.5C 190.667,313.833 190.667,315.167 190,316.5C 188.989,315.663 187.822,315.33 186.5,315.5C 186.216,317.415 186.549,319.081 187.5,320.5C 188.167,320.5 188.833,320.5 189.5,320.5C 190.822,320.67 191.989,320.337 193,319.5C 193.483,320.448 193.649,321.448 193.5,322.5C 189.445,322.824 185.445,322.491 181.5,321.5C 183.344,317.783 184.011,313.783 183.5,309.5C 183.586,308.504 183.252,307.671 182.5,307C 186.152,306.501 189.818,306.335 193.5,306.5C 193.5,307.5 193.5,308.5 193.5,309.5 Z"/></g>
<g><path style="opacity:0.988" fill="#564e1c" d="M 215.5,309.5 C 217.33,313.608 218.33,313.275 218.5,308.5C 219.139,309.097 219.472,309.93 219.5,311C 219.613,312.699 218.947,313.866 217.5,314.5C 215.735,313.539 213.735,313.205 211.5,313.5C 211.5,311.833 211.5,310.167 211.5,308.5C 213.099,308.232 214.432,308.566 215.5,309.5 Z M 215.5,309.5 C 215.5,310.5 215.5,311.5 215.5,312.5C 214.5,312.5 213.5,312.5 212.5,312.5C 212.5,311.5 212.5,310.5 212.5,309.5C 213.5,309.5 214.5,309.5 215.5,309.5 Z"/></g>
<g><path style="opacity:0.965" fill="#3c3314" d="M 89.5,320.5 C 88.4324,321.434 87.099,321.768 85.5,321.5C 85.8432,319.517 85.1765,318.183 83.5,317.5C 82.0783,317.709 80.745,318.209 79.5,319C 80.3366,320.011 80.67,321.178 80.5,322.5C 78.396,322.799 76.396,322.466 74.5,321.5C 76.8132,316.608 78.9798,311.608 81,306.5C 82.0113,305.663 83.1779,305.33 84.5,305.5C 85.5642,310.692 87.2308,315.692 89.5,320.5 Z"/></g>
<g><path style="opacity:0.271" fill="#aa942d" d="M 145.5,310.5 C 146.156,311.622 146.489,312.955 146.5,314.5C 146.639,316.883 145.972,318.883 144.5,320.5C 145.207,317.214 145.54,313.881 145.5,310.5 Z"/></g>
<g><path style="opacity:0.3" fill="#9d9434" d="M 147.5,308.5 C 148.794,310.048 149.461,312.048 149.5,314.5C 149.461,316.952 148.794,318.952 147.5,320.5C 148.833,316.5 148.833,312.5 147.5,308.5 Z"/></g>
<g><path style="opacity:0.98" fill="#241b0a" d="M 236.5,307.5 C 237.978,308.448 238.978,309.781 239.5,311.5C 241.882,312.351 243.882,313.684 245.5,315.5C 245.5,317.5 245.5,319.5 245.5,321.5C 245.167,321.5 244.833,321.5 244.5,321.5C 243.761,321.631 243.094,321.464 242.5,321C 244.18,318.189 243.513,316.356 240.5,315.5C 239.508,315.672 238.842,315.338 238.5,314.5C 236.832,312.521 236.166,310.188 236.5,307.5 Z"/></g>
<g><path style="opacity:0.988" fill="#150e01" d="M 328.5,308.5 C 327.167,312.833 325.833,317.167 324.5,321.5C 323.5,321.167 322.833,320.5 322.5,319.5C 321.506,317.666 321.506,315.999 322.5,314.5C 322.415,315.995 323.081,316.995 324.5,317.5C 325.966,313.947 325.632,310.614 323.5,307.5C 324.333,307.167 325.167,306.833 326,306.5C 327.376,306.684 328.209,307.351 328.5,308.5 Z"/></g>
<g><path style="opacity:0.569" fill="#5f5216" d="M 330.5,308.5 C 331.794,310.048 332.461,312.048 332.5,314.5C 332.021,317.372 332.021,320.039 332.5,322.5C 331.325,322.719 330.325,322.386 329.5,321.5C 331.748,317.348 332.081,313.015 330.5,308.5 Z"/></g>
<g><path style="opacity:1" fill="#52461d" d="M 421.5,309.5 C 419.833,309.5 418.167,309.5 416.5,309.5C 416.402,312.248 417.402,312.914 419.5,311.5C 420.613,312.946 420.78,314.613 420,316.5C 419.617,315.944 419.117,315.611 418.5,315.5C 416.896,316.287 416.229,317.62 416.5,319.5C 418.167,319.5 419.833,319.5 421.5,319.5C 420.081,320.451 418.415,320.784 416.5,320.5C 416.655,316.645 416.321,312.645 415.5,308.5C 417.735,308.205 419.735,308.539 421.5,309.5 Z"/></g>
<g><path style="opacity:0.957" fill="#181001" d="M 131.5,306.5 C 131.715,308.179 131.048,309.179 129.5,309.5C 128.903,308.861 128.07,308.528 127,308.5C 125.624,308.684 124.791,309.351 124.5,310.5C 124.5,311.167 124.5,311.833 124.5,312.5C 125.542,313.791 126.708,313.791 128,312.5C 128.667,313.833 128.667,315.167 128,316.5C 126.708,315.209 125.542,315.209 124.5,316.5C 124.5,316.833 124.5,317.167 124.5,317.5C 124.5,318.833 124.5,320.167 124.5,321.5C 123.5,321.5 122.5,321.5 121.5,321.5C 121.803,316.57 121.469,311.737 120.5,307C 124.152,306.501 127.818,306.335 131.5,306.5 Z"/></g>
<g><path style="opacity:0.361" fill="#9c8c31" d="M 124.5,316.5 C 125.542,315.209 126.708,315.209 128,316.5C 128.667,315.167 128.667,313.833 128,312.5C 126.708,313.791 125.542,313.791 124.5,312.5C 126.017,312.489 127.184,311.823 128,310.5C 129.352,312.594 129.852,314.927 129.5,317.5C 127.784,317.371 126.117,317.038 124.5,316.5 Z"/></g>
<g><path style="opacity:0.137" fill="#bfb156" d="M 170.5,308.5 C 170.833,308.5 171.167,308.5 171.5,308.5C 171.5,312.167 171.5,315.833 171.5,319.5C 172.5,319.5 173.5,319.5 174.5,319.5C 173.432,320.434 172.099,320.768 170.5,320.5C 170.5,316.5 170.5,312.5 170.5,308.5 Z"/></g>
<g><path style="opacity:0.961" fill="#2c2610" d="M 179.5,310.5 C 180.573,312.653 180.573,314.653 179.5,316.5C 178.778,316.918 178.278,317.584 178,318.5C 177.814,315.964 177.314,313.631 176.5,311.5C 176.351,310.448 176.517,309.448 177,308.5C 177.708,309.381 178.542,310.047 179.5,310.5 Z"/></g>
<g><path style="opacity:0.978" fill="#4b4017" d="M 255.5,306.5 C 256.6,307.605 257.267,308.938 257.5,310.5C 255.432,311.033 253.432,311.033 251.5,310.5C 253.538,312.276 255.704,313.943 258,315.5C 258.494,317.134 258.66,318.801 258.5,320.5C 255.015,323.967 251.348,324.3 247.5,321.5C 248.5,321.5 249.5,321.5 250.5,321.5C 250.5,320.5 250.5,319.5 250.5,318.5C 252.6,321.197 253.766,320.864 254,317.5C 250.394,316.226 247.727,313.893 246,310.5C 244.708,311.791 243.542,311.791 242.5,310.5C 242.279,309.265 241.612,308.265 240.5,307.5C 241.325,306.614 242.325,306.281 243.5,306.5C 245.017,306.511 246.184,307.177 247,308.5C 249.511,305.701 252.345,305.035 255.5,306.5 Z"/></g>
<g><path style="opacity:1" fill="#191003" d="M 317.5,306.5 C 318.338,306.842 318.672,307.508 318.5,308.5C 318.414,309.496 318.748,310.329 319.5,311C 318.552,311.483 317.552,311.649 316.5,311.5C 316.216,314.777 316.549,317.943 317.5,321C 316.5,321.667 315.5,321.667 314.5,321C 315.822,316.733 315.822,312.566 314.5,308.5C 314.167,308.5 313.833,308.5 313.5,308.5C 314.183,306.824 315.517,306.157 317.5,306.5 Z"/></g>
<g><path style="opacity:0.235" fill="#b8ac4f" d="M 358.5,308.5 C 357.167,312.5 357.167,316.5 358.5,320.5C 357.206,318.952 356.539,316.952 356.5,314.5C 356.539,312.048 357.206,310.048 358.5,308.5 Z"/></g>
<g><path style="opacity:0.969" fill="#312911" d="M 368.5,306.5 C 370.595,309.876 371.929,313.542 372.5,317.5C 374.452,321.304 373.452,322.304 369.5,320.5C 368.448,318.744 366.781,318.077 364.5,318.5C 363.655,319.671 362.989,321.005 362.5,322.5C 361.833,322.5 361.167,322.5 360.5,322.5C 361.933,320.442 362.6,318.108 362.5,315.5C 363.512,312.743 364.512,310.076 365.5,307.5C 366.391,306.89 367.391,306.557 368.5,306.5 Z"/></g>
<g><path style="opacity:0.059" fill="#9b9a4e" d="M 367.5,313.5 C 368.043,313.56 368.376,313.893 368.5,314.5C 367.675,315.386 366.675,315.719 365.5,315.5C 365.312,313.897 365.812,312.563 367,311.5C 367.464,312.094 367.631,312.761 367.5,313.5 Z"/></g>
<g><path style="opacity:0.989" fill="#171002" d="M 386.5,306.5 C 386.649,307.552 386.483,308.552 386,309.5C 384.644,308.62 383.144,308.286 381.5,308.5C 381.203,312.767 381.536,316.934 382.5,321C 381.263,321.232 380.263,321.732 379.5,322.5C 379.167,323.833 378.833,323.833 378.5,322.5C 379.383,317.897 379.717,313.23 379.5,308.5C 377.856,308.286 376.356,308.62 375,309.5C 374.517,308.552 374.351,307.552 374.5,306.5C 378.5,306.5 382.5,306.5 386.5,306.5 Z"/></g>
<g><path style="opacity:0.012" fill="#c4bf46" d="M 408.5,311.5 C 408.88,313.698 408.213,315.365 406.5,316.5C 406.796,314.597 407.463,312.93 408.5,311.5 Z"/></g>
<g><path style="opacity:0.914" fill="#1b1200" d="M 97.5,306.5 C 97.5,307.167 97.5,307.833 97.5,308.5C 97.1667,308.5 96.8333,308.5 96.5,308.5C 95.5139,312.97 95.1805,317.637 95.5,322.5C 95.1667,322.5 94.8333,322.5 94.5,322.5C 92.8212,322.715 91.8212,322.048 91.5,320.5C 92.162,318.696 92.4954,316.696 92.5,314.5C 92.4609,312.048 91.7943,310.048 90.5,308.5C 92.2789,306.656 94.6122,305.99 97.5,306.5 Z"/></g>
<g><path style="opacity:0.927" fill="#1d1603" d="M 165.5,306.5 C 168.518,306.335 171.518,306.502 174.5,307C 172.942,307.21 171.609,307.71 170.5,308.5C 170.5,312.5 170.5,316.5 170.5,320.5C 169.791,321.404 168.791,321.737 167.5,321.5C 167.5,317.833 167.5,314.167 167.5,310.5C 166.828,309.733 165.995,309.066 165,308.5C 164.308,307.563 164.475,306.897 165.5,306.5 Z"/></g>
<g><path style="opacity:0.494" fill="#766617" d="M 265.5,308.5 C 264.167,312.5 264.167,316.5 265.5,320.5C 264.206,318.952 263.539,316.952 263.5,314.5C 263.539,312.048 264.206,310.048 265.5,308.5 Z"/></g>
<g><path style="opacity:0.896" fill="#191200" d="M 388.5,306.5 C 391.082,306.025 393.082,306.692 394.5,308.5C 392.577,312.029 391.911,316.029 392.5,320.5C 391.749,321.573 390.749,321.74 389.5,321C 391.065,315.963 390.732,311.129 388.5,306.5 Z"/></g>
<g><path style="opacity:0.125" fill="#c9be5f" d="M 394.5,308.5 C 393.167,312.5 393.167,316.5 394.5,320.5C 393.833,320.5 393.167,320.5 392.5,320.5C 391.911,316.029 392.577,312.029 394.5,308.5 Z"/></g>
<g><path style="opacity:0.975" fill="#3c3216" d="M 401.5,306.5 C 401.444,308.494 401.777,310.661 402.5,313C 402.836,314.03 403.503,314.53 404.5,314.5C 406.267,312.208 407.267,309.542 407.5,306.5C 408.552,306.351 409.552,306.517 410.5,307C 408.963,308.11 408.297,309.61 408.5,311.5C 407.463,312.93 406.796,314.597 406.5,316.5C 406.598,318.553 405.931,320.22 404.5,321.5C 403.391,321.443 402.391,321.11 401.5,320.5C 399.648,317.449 398.314,314.116 397.5,310.5C 396.176,307.205 397.509,305.872 401.5,306.5 Z"/></g>
<g><path style="opacity:0.114" fill="#baa944" d="M 96.5,308.5 C 96.2281,312.902 96.5614,317.235 97.5,321.5C 96.9638,323.145 96.2971,323.478 95.5,322.5C 95.1805,317.637 95.5139,312.97 96.5,308.5 Z"/></g>
<g><path style="opacity:0.365" fill="#9e9136" d="M 108.5,308.5 C 108.5,308.833 108.5,309.167 108.5,309.5C 107.167,309.5 105.833,309.5 104.5,309.5C 104.5,312.833 104.5,316.167 104.5,319.5C 106.514,319.608 108.18,318.942 109.5,317.5C 109.586,318.496 109.252,319.329 108.5,320C 106.866,320.494 105.199,320.66 103.5,320.5C 103.5,316.5 103.5,312.5 103.5,308.5C 105.167,308.5 106.833,308.5 108.5,308.5 Z"/></g>
<g><path style="opacity:0.196" fill="#9b8c35" d="M 131.5,306.5 C 127.818,306.335 124.152,306.501 120.5,307C 121.469,311.737 121.803,316.57 121.5,321.5C 122.5,321.5 123.5,321.5 124.5,321.5C 124.5,320.167 124.5,318.833 124.5,317.5C 126.07,318.875 126.903,320.541 127,322.5C 124.923,323.378 122.59,323.378 120,322.5C 120.975,316.962 120.642,311.629 119,306.5C 123.267,305.178 127.434,305.178 131.5,306.5 Z"/></g>
<g><path style="opacity:0.982" fill="#160d01" d="M 216.5,306.5 C 217.5,306.833 218.167,307.5 218.5,308.5C 218.33,313.275 217.33,313.608 215.5,309.5C 214.432,308.566 213.099,308.232 211.5,308.5C 211.5,310.167 211.5,311.833 211.5,313.5C 213.735,313.205 215.735,313.539 217.5,314.5C 216.71,315.609 216.21,316.942 216,318.5C 215.617,317.944 215.117,317.611 214.5,317.5C 214.189,316.522 213.522,315.855 212.5,315.5C 211.24,317.353 211.24,319.186 212.5,321C 211.251,321.74 210.251,321.573 209.5,320.5C 209.772,316.098 209.439,311.765 208.5,307.5C 211.086,306.52 213.753,306.187 216.5,306.5 Z M 215.5,309.5 C 214.5,309.5 213.5,309.5 212.5,309.5C 212.5,310.5 212.5,311.5 212.5,312.5C 213.5,312.5 214.5,312.5 215.5,312.5C 215.5,311.5 215.5,310.5 215.5,309.5 Z"/></g>
<g><path style="opacity:0.98" fill="#0f0800" d="M 269.5,308.5 C 270.492,308.328 271.158,308.662 271.5,309.5C 270.834,312.358 270.167,315.358 269.5,318.5C 268.334,315.163 268.334,311.83 269.5,308.5 Z"/></g>
<g><path style="opacity:0.508" fill="#65591b" d="M 314.5,308.5 C 315.822,312.566 315.822,316.733 314.5,321C 315.5,321.667 316.5,321.667 317.5,321C 316.549,317.943 316.216,314.777 316.5,311.5C 317.552,311.649 318.552,311.483 319.5,311C 318.748,310.329 318.414,309.496 318.5,308.5C 320.822,309.802 322.155,311.802 322.5,314.5C 321.506,315.999 321.506,317.666 322.5,319.5C 320.777,317.747 319.277,315.747 318,313.5C 317.105,316.466 317.605,319.133 319.5,321.5C 317.167,322.833 314.833,322.833 312.5,321.5C 314.359,317.443 315.026,313.109 314.5,308.5 Z"/></g>
<g><path style="opacity:0.976" fill="#1f1809" d="M 423.5,306.5 C 424.976,308.709 424.309,310.042 421.5,310.5C 421.5,310.167 421.5,309.833 421.5,309.5C 419.735,308.539 417.735,308.205 415.5,308.5C 416.321,312.645 416.655,316.645 416.5,320.5C 415.749,321.573 414.749,321.74 413.5,321C 414.822,316.733 414.822,312.566 413.5,308.5C 413.082,307.778 412.416,307.278 411.5,307C 415.486,306.501 419.486,306.334 423.5,306.5 Z"/></g>
<g><path style="opacity:0.169" fill="#96811c" d="M 419.5,311.5 C 419.842,310.662 420.508,310.328 421.5,310.5C 421.5,312.833 421.5,315.167 421.5,317.5C 419.821,317.715 418.821,317.048 418.5,315.5C 419.117,315.611 419.617,315.944 420,316.5C 420.78,314.613 420.613,312.946 419.5,311.5 Z"/></g>
<g><path style="opacity:0.976" fill="#1b1303" d="M 156.5,306.5 C 157.5,306.833 158.167,307.5 158.5,308.5C 157.969,311.767 156.969,312.1 155.5,309.5C 154.432,308.566 153.099,308.232 151.5,308.5C 151.5,310.167 151.5,311.833 151.5,313.5C 153.099,313.768 154.432,313.434 155.5,312.5C 156.139,313.097 156.472,313.93 156.5,315C 156.613,316.699 155.947,317.866 154.5,318.5C 154.585,317.005 153.919,316.005 152.5,315.5C 151.548,317.045 151.215,318.712 151.5,320.5C 153.179,320.285 154.179,320.952 154.5,322.5C 151.881,323.257 149.214,322.923 146.5,321.5C 146.624,320.893 146.957,320.56 147.5,320.5C 148.794,318.952 149.461,316.952 149.5,314.5C 149.461,312.048 148.794,310.048 147.5,308.5C 149.988,306.612 152.988,305.945 156.5,306.5 Z"/></g>
<g><path style="opacity:0.012" fill="#aa9d45" d="M 187.5,320.5 C 186.549,319.081 186.216,317.415 186.5,315.5C 187.822,315.33 188.989,315.663 190,316.5C 190.667,315.167 190.667,313.833 190,312.5C 188.244,313.985 187.077,313.652 186.5,311.5C 188.049,311.736 189.549,311.736 191,311.5C 191.495,313.473 191.662,315.473 191.5,317.5C 190.178,317.67 189.011,317.337 188,316.5C 187.51,317.793 187.343,319.127 187.5,320.5 Z"/></g>
<g><path style="opacity:0.976" fill="#50461b" d="M 136.5,306.5 C 137.448,307.978 138.781,308.978 140.5,309.5C 138.856,309.286 137.356,309.62 136,310.5C 135.272,313.23 135.438,315.897 136.5,318.5C 139.729,320.181 141.729,319.181 142.5,315.5C 141.691,313.929 141.357,312.262 141.5,310.5C 144.279,314.158 143.946,317.658 140.5,321C 141.094,321.464 141.761,321.631 142.5,321.5C 140.122,323.918 137.455,324.085 134.5,322C 133.177,321.184 132.511,320.017 132.5,318.5C 132.253,315.061 132.586,311.728 133.5,308.5C 133.973,307.094 134.973,306.427 136.5,306.5 Z"/></g>
<g><path style="opacity:0.435" fill="#978a29" d="M 195.5,320.5 C 195.5,321.167 195.5,321.833 195.5,322.5C 194.833,322.5 194.167,322.5 193.5,322.5C 193.649,321.448 193.483,320.448 193,319.5C 191.989,320.337 190.822,320.67 189.5,320.5C 191.564,318.022 193.564,318.022 195.5,320.5 Z"/></g>
<g><path style="opacity:0.969" fill="#1b0c00" d="M 250.5,318.5 C 250.5,319.5 250.5,320.5 250.5,321.5C 249.5,321.5 248.5,321.5 247.5,321.5C 247.5,320.5 247.5,319.5 247.5,318.5C 248.5,318.5 249.5,318.5 250.5,318.5 Z"/></g>
<g><path style="opacity:0.522" fill="#6c6019" d="M 328.5,308.5 C 327.723,313.084 327.223,317.75 327,322.5C 325.841,323.566 325.008,323.233 324.5,321.5C 325.833,317.167 327.167,312.833 328.5,308.5 Z"/></g>
<g><path style="opacity:0.702" fill="#604f16" d="M 386.5,306.5 C 387.167,306.5 387.833,306.5 388.5,306.5C 390.732,311.129 391.065,315.963 389.5,321C 390.749,321.74 391.749,321.573 392.5,320.5C 393.167,320.5 393.833,320.5 394.5,320.5C 395.043,320.56 395.376,320.893 395.5,321.5C 392.914,322.48 390.247,322.813 387.5,322.5C 388.413,319.945 389.08,317.279 389.5,314.5C 389.167,312.833 388.833,311.167 388.5,309.5C 386.833,310.833 385.167,310.833 383.5,309.5C 381.991,313.729 382.324,317.729 384.5,321.5C 382.831,322.973 381.164,323.306 379.5,322.5C 380.263,321.732 381.263,321.232 382.5,321C 381.536,316.934 381.203,312.767 381.5,308.5C 383.144,308.286 384.644,308.62 386,309.5C 386.483,308.552 386.649,307.552 386.5,306.5 Z"/></g>
<g><path style="opacity:0.149" fill="#baa937" d="M 113.5,316.5 C 113.771,318.38 113.104,319.713 111.5,320.5C 111.66,318.847 112.326,317.514 113.5,316.5 Z"/></g>
<g><path style="opacity:0.98" fill="#2d2613" d="M 200.5,306.5 C 200.279,307.735 199.612,308.735 198.5,309.5C 198.624,310.107 198.957,310.44 199.5,310.5C 199.5,310.833 199.5,311.167 199.5,311.5C 199.5,313.5 199.5,315.5 199.5,317.5C 199.5,317.833 199.5,318.167 199.5,318.5C 199.5,319.833 199.5,321.167 199.5,322.5C 198.167,322.5 196.833,322.5 195.5,322.5C 195.5,321.833 195.5,321.167 195.5,320.5C 195.5,316.5 195.5,312.5 195.5,308.5C 195.389,307.883 195.056,307.383 194.5,307C 196.473,306.505 198.473,306.338 200.5,306.5 Z"/></g>
<g><path style="opacity:0.49" fill="#837325" d="M 245.5,315.5 C 247.224,316.674 248.891,317.674 250.5,318.5C 249.5,318.5 248.5,318.5 247.5,318.5C 247.5,319.5 247.5,320.5 247.5,321.5C 246.833,321.5 246.167,321.5 245.5,321.5C 245.5,319.5 245.5,317.5 245.5,315.5 Z"/></g>
<g><path style="opacity:0.188" fill="#c0b24a" d="M 289.5,314.5 C 288.058,316.817 288.392,318.984 290.5,321C 289.956,321.717 289.289,322.217 288.5,322.5C 287.508,319.221 287.341,315.888 288,312.5C 288.717,313.044 289.217,313.711 289.5,314.5 Z"/></g>
<g><path style="opacity:0.259" fill="#aa9216" d="M 421.5,319.5 C 422.209,318.596 423.209,318.263 424.5,318.5C 424.737,319.791 424.404,320.791 423.5,321.5C 423.5,320.167 422.833,319.5 421.5,319.5 Z"/></g>
<g><path style="opacity:0.847" fill="#7d7122" d="M 83.5,317.5 C 85.1765,318.183 85.8432,319.517 85.5,321.5C 87.099,321.768 88.4324,321.434 89.5,320.5C 89.8333,320.5 90.1667,320.5 90.5,320.5C 90.8333,320.5 91.1667,320.5 91.5,320.5C 91.8212,322.048 92.8212,322.715 94.5,322.5C 91.5291,322.284 88.6958,322.617 86,323.5C 85.0754,322.953 84.2421,322.287 83.5,321.5C 84.8069,320.135 84.8069,318.802 83.5,317.5 Z"/></g>
<g><path style="opacity:0.945" fill="#52461b" d="M 158.5,308.5 C 159.886,310.938 159.553,313.271 157.5,315.5C 158.441,317.772 159.774,319.772 161.5,321.5C 159.044,322.153 156.71,322.486 154.5,322.5C 154.179,320.952 153.179,320.285 151.5,320.5C 151.215,318.712 151.548,317.045 152.5,315.5C 153.919,316.005 154.585,317.005 154.5,318.5C 155.947,317.866 156.613,316.699 156.5,315C 156.472,313.93 156.139,313.097 155.5,312.5C 155.5,311.5 155.5,310.5 155.5,309.5C 156.969,312.1 157.969,311.767 158.5,308.5 Z M 154.5,318.5 C 153.923,319.773 153.257,319.773 152.5,318.5C 152.97,317.537 153.637,317.537 154.5,318.5 Z"/></g>
<g><path style="opacity:0.827" fill="#655f1b" d="M 199.5,318.5 C 203.522,320.977 203.522,322.311 199.5,322.5C 199.5,321.167 199.5,319.833 199.5,318.5 Z"/></g>
<g><path style="opacity:0.937" fill="#3f3314" d="M 280.5,309.5 C 283.548,315.196 282.215,319.696 276.5,323C 274.934,323.765 273.601,323.598 272.5,322.5C 272.389,321.883 272.056,321.383 271.5,321C 273.764,320.764 275.931,320.264 278,319.5C 278.789,315.909 278.622,312.409 277.5,309C 278.577,308.53 279.577,308.697 280.5,309.5 Z"/></g>
<g><path style="opacity:0.976" fill="#221b05" d="M 336.5,308.5 C 335.206,310.048 334.539,312.048 334.5,314.5C 334.539,316.952 335.206,318.952 336.5,320.5C 337.043,320.56 337.376,320.893 337.5,321.5C 335.955,322.452 334.288,322.785 332.5,322.5C 332.021,320.039 332.021,317.372 332.5,314.5C 332.461,312.048 331.794,310.048 330.5,308.5C 330.167,308.5 329.833,308.5 329.5,308.5C 330.152,307.275 331.319,306.608 333,306.5C 334.681,306.608 335.848,307.275 336.5,308.5 Z"/></g>
<g><path style="opacity:0.835" fill="#94832b" d="M 99.5,308.5 C 101.43,312.373 102.097,316.706 101.5,321.5C 100.443,322.206 100.776,322.539 102.5,322.5C 100.907,323.867 99.5739,323.534 98.5,321.5C 100.748,317.348 101.081,313.015 99.5,308.5 Z"/></g>
<g><path style="opacity:0.851" fill="#463a15" d="M 109.5,306.5 C 113.428,308.972 114.762,312.306 113.5,316.5C 112.326,317.514 111.66,318.847 111.5,320.5C 108.76,322.603 105.76,323.27 102.5,322.5C 100.776,322.539 100.443,322.206 101.5,321.5C 102.492,321.672 103.158,321.338 103.5,320.5C 105.199,320.66 106.866,320.494 108.5,320C 109.252,319.329 109.586,318.496 109.5,317.5C 109.599,314.763 109.265,312.096 108.5,309.5C 108.5,309.167 108.5,308.833 108.5,308.5C 109.338,308.158 109.672,307.492 109.5,306.5 Z"/></g>
<g><path style="opacity:0.827" fill="#594e18" d="M 167.5,310.5 C 167.5,314.167 167.5,317.833 167.5,321.5C 168.791,321.737 169.791,321.404 170.5,320.5C 172.099,320.768 173.432,320.434 174.5,319.5C 176.051,317.087 176.717,314.421 176.5,311.5C 177.314,313.631 177.814,315.964 178,318.5C 178.278,317.584 178.778,316.918 179.5,316.5C 179.548,319.292 178.215,321.125 175.5,322C 172.118,322.824 168.784,322.657 165.5,321.5C 166.104,317.697 166.77,314.031 167.5,310.5 Z"/></g>
<g><path style="opacity:0.78" fill="#4f4315" d="M 221.5,306.5 C 221.833,306.5 222.167,306.5 222.5,306.5C 224.732,311.129 225.065,315.963 223.5,321C 224.448,321.483 225.448,321.649 226.5,321.5C 226.205,319.265 226.539,317.265 227.5,315.5C 227.231,317.429 227.731,319.095 229,320.5C 231.877,319.544 234.544,318.211 237,316.5C 238.507,317.505 239.673,318.838 240.5,320.5C 242.93,318.963 242.93,317.296 240.5,315.5C 243.513,316.356 244.18,318.189 242.5,321C 243.094,321.464 243.761,321.631 244.5,321.5C 241.174,324.227 238.008,323.894 235,320.5C 232.106,321.78 228.939,322.446 225.5,322.5C 220.687,321.965 216.021,321.965 211.5,322.5C 210.167,322.167 208.833,321.833 207.5,321.5C 207.624,320.893 207.957,320.56 208.5,320.5C 208.833,320.5 209.167,320.5 209.5,320.5C 210.251,321.573 211.251,321.74 212.5,321C 211.24,319.186 211.24,317.353 212.5,315.5C 213.522,315.855 214.189,316.522 214.5,317.5C 215.117,317.611 215.617,317.944 216,318.5C 216.21,316.942 216.71,315.609 217.5,314.5C 217.84,316.679 218.84,318.512 220.5,320C 221.449,320.617 222.282,320.451 223,319.5C 223.942,314.909 223.442,310.576 221.5,306.5 Z M 214.5,317.5 C 215.739,320.882 215.073,321.215 212.5,318.5C 212.957,317.702 213.624,317.369 214.5,317.5 Z"/></g>
<g><path style="opacity:0.408" fill="#988723" d="M 228.5,315.5 C 229.391,316.11 230.391,316.443 231.5,316.5C 230.053,317.885 229.053,317.552 228.5,315.5 Z"/></g>
<g><path style="opacity:0.702" fill="#725c1a" d="M 362.5,315.5 C 362.6,318.108 361.933,320.442 360.5,322.5C 359.833,322.5 359.167,322.5 358.5,322.5C 358.5,321.833 358.5,321.167 358.5,320.5C 360.539,319.328 361.872,317.662 362.5,315.5 Z"/></g>
<g><path style="opacity:0.827" fill="#716d1b" d="M 364.5,318.5 C 366.009,320.68 365.509,322.347 363,323.5C 362.601,323.272 362.435,322.938 362.5,322.5C 362.989,321.005 363.655,319.671 364.5,318.5 Z"/></g>
<g><path style="opacity:0.78" fill="#5d4d13" d="M 372.5,317.5 C 373.479,318.765 374.479,320.099 375.5,321.5C 373.167,322.833 370.833,322.833 368.5,321.5C 368.624,320.893 368.957,320.56 369.5,320.5C 373.452,322.304 374.452,321.304 372.5,317.5 Z"/></g>
<g><path style="opacity:0.4" fill="#99861c" d="M 401.5,320.5 C 402.391,321.11 403.391,321.443 404.5,321.5C 402.987,324.048 401.987,323.715 401.5,320.5 Z"/></g>
<g><path style="opacity:0.867" fill="#342805" d="M 413.5,308.5 C 414.822,312.566 414.822,316.733 413.5,321C 414.749,321.74 415.749,321.573 416.5,320.5C 418.415,320.784 420.081,320.451 421.5,319.5C 422.833,319.5 423.5,320.167 423.5,321.5C 419.702,322.483 415.702,322.817 411.5,322.5C 413.062,318.348 413.728,314.015 413.5,309.5C 413.5,309.167 413.5,308.833 413.5,308.5 Z"/></g>
<g><path style="opacity:0.027" fill="#cfc534" d="M 276.5,329.5 C 277.72,331.284 277.72,332.95 276.5,334.5C 275.904,332.602 275.904,330.935 276.5,329.5 Z"/></g>
<g><path style="opacity:0.796" fill="#382501" d="M 276.5,329.5 C 277.693,329.97 278.36,330.97 278.5,332.5C 278.16,334.512 277.827,336.512 277.5,338.5C 276.596,337.791 276.263,336.791 276.5,335.5C 276.5,335.167 276.5,334.833 276.5,334.5C 277.72,332.95 277.72,331.284 276.5,329.5 Z"/></g>
<g><path style="opacity:0.616" fill="#ac962b" d="M 184.5,334.5 C 183.833,335.833 183.167,337.167 182.5,338.5C 182.196,336.204 181.196,335.871 179.5,337.5C 180.69,334.094 180.023,333.761 177.5,336.5C 177.158,335.662 176.492,335.328 175.5,335.5C 175.5,334.167 174.833,333.5 173.5,333.5C 174.911,329.703 175.911,329.703 176.5,333.5C 178.401,333.567 180.234,333.233 182,332.5C 183.301,332.639 184.134,333.305 184.5,334.5 Z"/></g>
<g><path style="opacity:0.62" fill="#8b7824" d="M 319.5,341.5 C 319.013,340.527 318.513,339.527 318,338.5C 317.29,339.973 316.124,340.64 314.5,340.5C 314.662,338.473 314.495,336.473 314,334.5C 313.517,335.448 313.351,336.448 313.5,337.5C 308.959,337.331 308.626,337.998 312.5,339.5C 312.137,340.183 311.804,340.85 311.5,341.5C 303.299,342.138 295.133,342.471 287,342.5C 284.98,341.968 284.147,340.635 284.5,338.5C 285.161,337.282 285.828,335.949 286.5,334.5C 287.107,334.624 287.44,334.957 287.5,335.5C 287.238,336.978 287.571,338.311 288.5,339.5C 289.123,337.034 289.957,334.701 291,332.5C 292.788,334.333 292.954,336.333 291.5,338.5C 292.325,339.386 293.325,339.719 294.5,339.5C 294.643,337.738 294.309,336.071 293.5,334.5C 294.242,333.713 295.075,333.047 296,332.5C 298.763,332.694 301.597,332.694 304.5,332.5C 306.78,333.755 307.947,335.755 308,338.5C 308.416,333.938 310.749,332.272 315,333.5C 315.333,335.5 315.667,337.5 316,339.5C 317.651,337.598 317.984,335.598 317,333.5C 318.907,333.579 320.907,333.246 323,332.5C 324.022,333.354 324.855,334.354 325.5,335.5C 324.072,341.52 324.739,341.853 327.5,336.5C 326.917,334.452 326.917,332.619 327.5,331C 328.893,328.317 330.226,328.15 331.5,330.5C 331.023,331.478 330.357,332.311 329.5,333C 329.682,335.653 330.015,338.32 330.5,341C 329.391,341.638 328.225,342.138 327,342.5C 324.496,342.324 321.996,341.991 319.5,341.5 Z M 298.5,335.5 C 299.434,336.568 299.768,337.901 299.5,339.5C 298.448,339.649 297.448,339.483 296.5,339C 297.305,337.887 297.972,336.721 298.5,335.5 Z M 303.5,335.5 C 304.522,336.892 304.189,338.225 302.5,339.5C 302.167,339.333 301.833,339.167 301.5,339C 302.305,337.887 302.972,336.721 303.5,335.5 Z M 320.5,336.5 C 321.776,337.386 321.776,338.386 320.5,339.5C 319.438,338.575 319.438,337.575 320.5,336.5 Z"/></g>
<g><path style="opacity:0.518" fill="#8e7b20" d="M 343.5,339.5 C 341.517,340.902 339.851,342.736 338.5,345C 337.207,345.49 335.873,345.657 334.5,345.5C 334.539,343.641 333.706,342.308 332,341.5C 331.003,337.23 332.003,333.564 335,330.5C 335.576,333.124 336.91,333.791 339,332.5C 341.147,333.113 343.314,333.779 345.5,334.5C 344.544,336.075 343.877,337.742 343.5,339.5 Z M 335.5,341.5 C 335.322,340.305 334.989,339.138 334.5,338C 334.613,336.72 335.28,335.887 336.5,335.5C 338.219,337.92 338.386,340.253 337,342.5C 336.617,341.944 336.117,341.611 335.5,341.5 Z"/></g>
<g><path style="opacity:0.808" fill="#7c6c1f" d="M 153.5,337.5 C 152.371,336.53 151.371,335.364 150.5,334C 150.57,333.235 150.903,332.735 151.5,332.5C 151.631,331.624 151.298,330.957 150.5,330.5C 149.743,333.37 148.743,336.036 147.5,338.5C 148.213,335.763 148.213,333.096 147.5,330.5C 156.421,327.735 158.421,330.068 153.5,337.5 Z M 151.5,332.5 C 154.001,332.511 154.168,333.178 152,334.5C 151.536,333.906 151.369,333.239 151.5,332.5 Z"/></g>
<g><path style="opacity:0.298" fill="#a3942b" d="M 205.5,338.5 C 205.657,337.127 205.49,335.793 205,334.5C 204.768,335.737 204.268,336.737 203.5,337.5C 203.672,336.508 203.338,335.842 202.5,335.5C 201.791,334.596 200.791,334.263 199.5,334.5C 199.768,336.099 199.434,337.432 198.5,338.5C 198.579,337.07 198.246,335.736 197.5,334.5C 198.628,333.738 199.795,333.071 201,332.5C 202.583,332.493 204.249,332.826 206,333.5C 206.78,335.387 206.613,337.054 205.5,338.5 Z"/></g>
<g><path style="opacity:0.49" fill="#897522" d="M 237.5,335.5 C 236.699,337.042 236.366,338.708 236.5,340.5C 234.906,340.92 233.406,341.586 232,342.5C 227.451,342.562 222.951,342.396 218.5,342C 218.167,341.667 217.833,341.333 217.5,341C 220.328,337.699 220.994,334.032 219.5,330C 220.593,328.635 221.926,328.301 223.5,329C 224.711,330.113 224.711,331.28 223.5,332.5C 225.567,333.134 227.4,334.134 229,335.5C 231.972,331.561 234.806,331.561 237.5,335.5 Z M 223.5,335.5 C 224.844,337.185 224.677,338.852 223,340.5C 222.36,338.735 222.527,337.068 223.5,335.5 Z M 231.5,336.5 C 233.465,336.948 233.798,337.948 232.5,339.5C 231.614,338.675 231.281,337.675 231.5,336.5 Z"/></g>
<g><path style="opacity:0.937" fill="#4c380e" d="M 151.5,332.5 C 150.903,332.735 150.57,333.235 150.5,334C 151.371,335.364 152.371,336.53 153.5,337.5C 153.737,338.791 153.404,339.791 152.5,340.5C 152.672,339.508 152.338,338.842 151.5,338.5C 150.908,335.917 150.242,335.917 149.5,338.5C 149.685,339.584 150.018,340.584 150.5,341.5C 148.58,342.94 146.913,342.607 145.5,340.5C 146.243,339.818 146.909,339.151 147.5,338.5C 148.743,336.036 149.743,333.37 150.5,330.5C 151.298,330.957 151.631,331.624 151.5,332.5 Z"/></g>
<g><path style="opacity:0.184" fill="#a6952a" d="M 276.5,329.5 C 277.209,328.596 278.209,328.263 279.5,328.5C 279.5,330.167 279.5,331.833 279.5,333.5C 281.144,333.286 282.644,333.62 284,334.5C 285.402,332.027 286.902,332.027 288.5,334.5C 288.376,335.107 288.043,335.44 287.5,335.5C 287.44,334.957 287.107,334.624 286.5,334.5C 285.828,335.949 285.161,337.282 284.5,338.5C 284.649,337.448 284.483,336.448 284,335.5C 283.768,336.737 283.268,337.737 282.5,338.5C 282.657,337.127 282.49,335.793 282,334.5C 281.768,335.737 281.268,336.737 280.5,337.5C 280.44,336.957 280.107,336.624 279.5,336.5C 278.818,337.243 278.151,337.909 277.5,338.5C 277.827,336.512 278.16,334.512 278.5,332.5C 278.36,330.97 277.693,329.97 276.5,329.5 Z"/></g>
<g><path style="opacity:0.776" fill="#77611b" d="M 213.5,338.5 C 211.549,338.227 210.049,338.893 209,340.5C 208.506,338.866 208.34,337.199 208.5,335.5C 210.714,332.217 213.38,331.884 216.5,334.5C 215.479,335.901 214.479,337.235 213.5,338.5 Z"/></g>
<g><path style="opacity:0.931" fill="#271a01" d="M 247.5,334.5 C 248.239,334.369 248.906,334.536 249.5,335C 248.391,336.876 247.391,338.709 246.5,340.5C 246.517,338.435 246.85,336.435 247.5,334.5 Z"/></g>
<g><path style="opacity:0.565" fill="#8d7a23" d="M 246.5,340.5 C 247.391,338.709 248.391,336.876 249.5,335C 248.906,334.536 248.239,334.369 247.5,334.5C 250.463,331.537 252.796,332.037 254.5,336C 253.833,337.333 252.833,338.333 251.5,339C 252.495,341.055 251.662,342.221 249,342.5C 247.699,342.361 246.866,341.695 246.5,340.5 Z"/></g>
<g><path style="opacity:0.651" fill="#8c741f" d="M 260.5,330.5 C 261.626,331.714 262.959,332.714 264.5,333.5C 270.173,331.839 272.173,333.839 270.5,339.5C 264.743,343.705 262.076,342.372 262.5,335.5C 261.585,336.328 260.919,337.328 260.5,338.5C 261.98,341.047 261.314,342.214 258.5,342C 258.248,339.532 257.914,337.032 257.5,334.5C 258.91,333.431 259.91,332.097 260.5,330.5 Z M 266.5,335.5 C 268.879,336.562 268.879,337.895 266.5,339.5C 265.374,338.192 265.374,336.858 266.5,335.5 Z"/></g>
<g><path style="opacity:0.714" fill="#5f4e0f" d="M 319.5,341.5 C 316.778,342.056 314.111,342.056 311.5,341.5C 311.804,340.85 312.137,340.183 312.5,339.5C 308.626,337.998 308.959,337.331 313.5,337.5C 313.351,336.448 313.517,335.448 314,334.5C 314.495,336.473 314.662,338.473 314.5,340.5C 316.124,340.64 317.29,339.973 318,338.5C 318.513,339.527 319.013,340.527 319.5,341.5 Z"/></g>
<g><path style="opacity:0.09" fill="#c4b55d" d="M 151.5,338.5 C 152.338,338.842 152.672,339.508 152.5,340.5C 151.833,340.833 151.167,341.167 150.5,341.5C 150.018,340.584 149.685,339.584 149.5,338.5C 150.242,335.917 150.908,335.917 151.5,338.5 Z"/></g>
<g><path style="opacity:0.729" fill="#826f1f" d="M 173.5,333.5 C 174.833,333.5 175.5,334.167 175.5,335.5C 175.67,336.822 175.337,337.989 174.5,339C 175.094,339.464 175.761,339.631 176.5,339.5C 175.181,342.745 173.348,343.078 171,340.5C 167.388,343.685 165.221,343.018 164.5,338.5C 161.402,338.413 161.068,338.913 163.5,340C 159.942,342.755 156.275,342.922 152.5,340.5C 153.404,339.791 153.737,338.791 153.5,337.5C 155.412,339.872 156.578,339.205 157,335.5C 159.419,332.263 162.085,331.93 165,334.5C 167.665,332.405 170.498,332.072 173.5,333.5 Z M 171.5,335.5 C 172.776,336.386 172.776,337.386 171.5,338.5C 170.438,337.575 170.438,336.575 171.5,335.5 Z"/></g>
<g><path style="opacity:0.812" fill="#8c7924" d="M 198.5,338.5 C 198.179,340.048 197.179,340.715 195.5,340.5C 195.662,338.473 195.495,336.473 195,334.5C 194.79,336.058 194.29,337.391 193.5,338.5C 192.817,336.824 191.483,336.157 189.5,336.5C 189.286,338.144 189.62,339.644 190.5,341C 188.105,343.145 185.938,342.978 184,340.5C 180.926,343.405 178.426,343.072 176.5,339.5C 176.557,338.391 176.89,337.391 177.5,336.5C 180.023,333.761 180.69,334.094 179.5,337.5C 180.053,339.552 181.053,339.885 182.5,338.5C 183.167,337.167 183.833,335.833 184.5,334.5C 185.721,333.972 186.887,333.305 188,332.5C 190.072,332.258 192.239,332.591 194.5,333.5C 194.491,331.692 194.991,330.025 196,328.5C 198.152,330.277 197.985,331.777 195.5,333C 196.264,335.069 196.764,337.236 197,339.5C 197.383,338.944 197.883,338.611 198.5,338.5 Z M 182.5,338.5 C 181.053,339.885 180.053,339.552 179.5,337.5C 181.196,335.871 182.196,336.204 182.5,338.5 Z"/></g>
<g><path style="opacity:0.794" fill="#6d5a16" d="M 198.5,338.5 C 199.434,337.432 199.768,336.099 199.5,334.5C 200.791,334.263 201.791,334.596 202.5,335.5C 201.527,337.068 201.36,338.735 202,340.5C 202.513,339.473 203.013,338.473 203.5,337.5C 204.268,336.737 204.768,335.737 205,334.5C 205.49,335.793 205.657,337.127 205.5,338.5C 205.5,338.833 205.5,339.167 205.5,339.5C 205.179,341.048 204.179,341.715 202.5,341.5C 199.606,342.254 196.772,342.587 194,342.5C 190.948,341.421 190.782,340.088 193.5,338.5C 194.29,337.391 194.79,336.058 195,334.5C 195.495,336.473 195.662,338.473 195.5,340.5C 197.179,340.715 198.179,340.048 198.5,338.5 Z M 202.5,335.5 C 203.338,335.842 203.672,336.508 203.5,337.5C 203.013,338.473 202.513,339.473 202,340.5C 201.36,338.735 201.527,337.068 202.5,335.5 Z"/></g>
<g><path style="opacity:0.792" fill="#705b18" d="M 282.5,338.5 C 283.872,340.35 283.372,341.683 281,342.5C 278.91,341.848 276.743,341.681 274.5,342C 274.043,341.586 273.709,341.086 273.5,340.5C 274.696,338.855 275.696,337.189 276.5,335.5C 276.263,336.791 276.596,337.791 277.5,338.5C 278.779,339.715 279.779,339.382 280.5,337.5C 281.268,336.737 281.768,335.737 282,334.5C 282.49,335.793 282.657,337.127 282.5,338.5 Z M 280.5,337.5 C 279.779,339.382 278.779,339.715 277.5,338.5C 278.151,337.909 278.818,337.243 279.5,336.5C 280.107,336.624 280.44,336.957 280.5,337.5 Z"/></g>
<g><path style="opacity:0.675" fill="#98820c" d="M 343.5,339.5 C 346.548,339.494 347.048,340.494 345,342.5C 343.961,341.756 343.461,340.756 343.5,339.5 Z"/></g>
<g><path style="opacity:0.733" fill="#8a6f13" d="M 347.5,339.5 C 350.548,339.494 351.048,340.494 349,342.5C 347.961,341.756 347.461,340.756 347.5,339.5 Z"/></g>
<g><path style="opacity:0.537" fill="#795b01" d="M 351.5,339.5 C 353.337,339.639 353.67,340.306 352.5,341.5C 351.702,341.043 351.369,340.376 351.5,339.5 Z"/></g>
<g><path style="opacity:0.635" fill="#a49436" d="M 208.5,335.5 C 208.34,337.199 208.506,338.866 209,340.5C 210.049,338.893 211.549,338.227 213.5,338.5C 214.72,340.284 214.72,341.95 213.5,343.5C 213.541,339.757 212.874,339.59 211.5,343C 209.888,343.72 208.388,343.554 207,342.5C 206.536,343.094 206.369,343.761 206.5,344.5C 205.26,343.341 203.926,342.341 202.5,341.5C 204.179,341.715 205.179,341.048 205.5,339.5C 206.117,339.611 206.617,339.944 207,340.5C 207.198,338.618 207.698,336.952 208.5,335.5 Z"/></g>
<g><path style="opacity:0.631" fill="#675010" d="M 213.5,343.5 C 212.688,344.993 211.355,345.66 209.5,345.5C 208.274,345.48 207.274,345.147 206.5,344.5C 206.369,343.761 206.536,343.094 207,342.5C 208.388,343.554 209.888,343.72 211.5,343C 212.874,339.59 213.541,339.757 213.5,343.5 Z"/></g>
<g><path style="opacity:0.482" fill="#887423" d="M 245.5,335.5 C 246.167,335.167 246.833,334.833 247.5,334.5C 246.85,336.435 246.517,338.435 246.5,340.5C 243.984,340.755 241.65,341.589 239.5,343C 239.957,343.414 240.291,343.914 240.5,344.5C 238.5,345.833 236.5,345.833 234.5,344.5C 235.63,343.378 236.297,342.044 236.5,340.5C 237.339,339.359 238.006,338.026 238.5,336.5C 238.376,335.893 238.043,335.56 237.5,335.5C 237.351,334.448 237.517,333.448 238,332.5C 239.43,332.694 240.93,332.694 242.5,332.5C 244.213,332.879 245.213,333.879 245.5,335.5 Z M 240.5,336.5 C 242.465,336.948 242.798,337.948 241.5,339.5C 240.614,338.675 240.281,337.675 240.5,336.5 Z"/></g>
<g><path style="opacity:0.824" fill="#3e2c08" d="M 245.5,335.5 C 245.688,337.103 245.188,338.437 244,339.5C 243.333,337.833 243.333,336.167 244,334.5C 244.383,335.056 244.883,335.389 245.5,335.5 Z"/></g>
</svg>
